<svg width="220" height="152" viewBox="0 0 220 152" fill="none" xmlns="http://www.w3.org/2000/svg">
<path d="M65.0114 151.977C51.8011 151.93 40.3902 148.876 30.7784 142.815C21.1667 136.755 13.7566 128.019 8.5483 116.608C3.33996 105.197 0.75947 91.5133 0.806819 75.5568C0.854167 59.553 3.45833 45.964 8.61932 34.7898C13.8277 23.6155 21.214 15.1165 30.7784 9.29261C40.3902 3.46875 51.8011 0.556813 65.0114 0.556813C78.2216 0.556813 89.6326 3.49242 99.2443 9.36364C108.856 15.1875 116.266 23.6865 121.474 34.8608C126.683 46.035 129.263 59.6004 129.216 75.5568C129.216 91.608 126.612 105.339 121.403 116.75C116.195 128.161 108.785 136.897 99.1733 142.957C89.6089 148.971 78.2216 151.977 65.0114 151.977ZM65.0114 119.875C71.8295 119.875 77.4167 116.324 81.7727 109.222C86.1761 102.072 88.3542 90.8504 88.3068 75.5568C88.3068 65.5663 87.3125 57.3987 85.3239 51.054C83.3352 44.7093 80.589 40.0218 77.0852 36.9915C73.5814 33.9138 69.5568 32.375 65.0114 32.375C58.1932 32.375 52.6297 35.8314 48.321 42.7443C44.0123 49.6572 41.8106 60.5947 41.7159 75.5568C41.6686 85.7367 42.6392 94.1174 44.6278 100.699C46.6165 107.233 49.3627 112.062 52.8665 115.188C56.4176 118.312 60.4659 119.875 65.0114 119.875ZM219.06 2.54545V148H179.571V38.9091H178.719L146.901 57.9432V24.4205L182.696 2.54545H219.06Z" fill="#EBF5F1"/>
</svg>
