<svg width="266" height="152" viewBox="0 0 266 152" fill="none" xmlns="http://www.w3.org/2000/svg">
<path d="M65.0114 151.977C51.8011 151.93 40.3902 148.876 30.7784 142.815C21.1667 136.755 13.7566 128.019 8.5483 116.608C3.33996 105.197 0.75947 91.5133 0.806819 75.5568C0.854167 59.553 3.45833 45.964 8.61932 34.7898C13.8277 23.6155 21.214 15.1165 30.7784 9.29261C40.3902 3.46875 51.8011 0.556813 65.0114 0.556813C78.2216 0.556813 89.6326 3.49242 99.2443 9.36364C108.856 15.1875 116.266 23.6865 121.474 34.8608C126.683 46.035 129.263 59.6004 129.216 75.5568C129.216 91.608 126.612 105.339 121.403 116.75C116.195 128.161 108.785 136.897 99.1733 142.957C89.6089 148.971 78.2216 151.977 65.0114 151.977ZM65.0114 119.875C71.8295 119.875 77.4167 116.324 81.7727 109.222C86.1761 102.072 88.3542 90.8504 88.3068 75.5568C88.3068 65.5663 87.3125 57.3987 85.3239 51.054C83.3352 44.7093 80.589 40.0218 77.0852 36.9915C73.5814 33.9138 69.5568 32.375 65.0114 32.375C58.1932 32.375 52.6297 35.8314 48.321 42.7443C44.0123 49.6572 41.8106 60.5947 41.7159 75.5568C41.6686 85.7367 42.6392 94.1174 44.6278 100.699C46.6165 107.233 49.3627 112.062 52.8665 115.188C56.4176 118.312 60.4659 119.875 65.0114 119.875ZM204.571 149.989C193.113 149.989 182.933 148.024 174.031 144.094C165.177 140.116 158.217 134.648 153.151 127.688C148.084 120.727 145.527 112.725 145.48 103.682H185.253C185.3 106.475 186.152 108.985 187.81 111.21C189.514 113.388 191.834 115.093 194.77 116.324C197.705 117.555 201.067 118.17 204.855 118.17C208.501 118.17 211.721 117.531 214.514 116.253C217.308 114.927 219.486 113.104 221.048 110.784C222.611 108.464 223.368 105.812 223.321 102.83C223.368 99.8939 222.469 97.2898 220.622 95.017C218.823 92.7443 216.29 90.9687 213.023 89.6903C209.756 88.4119 205.991 87.7727 201.73 87.7727H186.957V60.5H201.73C205.66 60.5 209.116 59.8608 212.099 58.5824C215.13 57.304 217.473 55.5284 219.131 53.2557C220.835 50.983 221.664 48.3788 221.616 45.4432C221.664 42.6023 220.977 40.0928 219.557 37.9148C218.136 35.7367 216.148 34.0322 213.591 32.8011C211.081 31.5701 208.17 30.9545 204.855 30.9545C201.257 30.9545 198.037 31.5937 195.196 32.8722C192.402 34.1506 190.201 35.9261 188.591 38.1989C186.981 40.4716 186.152 43.0758 186.105 46.0114H148.321C148.368 37.1098 150.807 29.25 155.636 22.4318C160.513 15.6136 167.189 10.2633 175.665 6.38068C184.14 2.4981 193.87 0.556813 204.855 0.556813C215.603 0.556813 225.097 2.37973 233.335 6.02556C241.621 9.6714 248.084 14.6903 252.724 21.0824C257.412 27.4271 259.732 34.6951 259.685 42.8864C259.779 51.0303 256.986 57.7064 251.304 62.9148C245.67 68.1231 238.52 71.2008 229.855 72.1477V73.2841C241.598 74.5625 250.428 78.161 256.347 84.0795C262.265 89.9508 265.177 97.3371 265.082 106.239C265.13 114.761 262.573 122.313 257.412 128.895C252.298 135.476 245.172 140.637 236.034 144.378C226.943 148.118 216.455 149.989 204.571 149.989Z" fill="#EBF5F1"/>
</svg>
