<svg width="327" height="66" viewBox="0 0 327 66" fill="none" xmlns="http://www.w3.org/2000/svg">
<g clip-path="url(#clip0_900_3042)">
<path d="M50.41 63.7401L47.47 55.2001H24.07L21.13 63.7401H3.77002L26.11 4.38013H45.34L67.77 63.7401H50.41ZM35.73 19.5101L28.16 41.8501H43.29L35.73 19.5101Z" stroke="black" stroke-width="0.74" stroke-miterlimit="10"/>
<path d="M72.13 63.7401V4.38013H105.77C117.52 4.38013 123.13 12.0301 123.13 19.5101C123.13 26.9901 118.59 31.8801 113 33.1201C119.32 34.1201 124.31 40.1201 124.31 47.6301C124.31 56.2701 118.52 63.7401 106.86 63.7401H72.13ZM107.55 22.1801C107.55 19.3301 105.42 17.2801 102.3 17.2801H87.44V27.1601H102.3C105.42 27.1601 107.55 25.1101 107.55 22.1801ZM108.71 45.5001C108.71 42.5601 106.58 40.1601 102.84 40.1601H87.44V50.8401H102.84C106.49 50.8401 108.71 48.7001 108.71 45.5001Z" stroke="black" stroke-width="0.74" stroke-miterlimit="10"/>
<path d="M129.63 34.1001C129.63 16.0401 143.25 3.40015 161.4 3.40015C179.55 3.40015 193.09 16.0001 193.09 34.1001C193.09 52.2001 179.56 64.8101 161.4 64.8101C143.24 64.8101 129.63 52.1701 129.63 34.1001ZM177.51 34.1001C177.51 24.4001 171.19 16.9301 161.4 16.9301C151.61 16.9301 145.21 24.4001 145.21 34.1001C145.21 43.8001 151.52 51.2801 161.4 51.2801C171.28 51.2801 177.51 43.7201 177.51 34.1001Z" stroke="black" stroke-width="0.74" stroke-miterlimit="10"/>
<path d="M200.84 39.7101V4.38013H216.41V39.1801C216.41 46.1801 220.6 51.2801 228.96 51.2801C237.15 51.2801 241.42 46.2101 241.42 39.1801V4.38013H256.91V39.6201C256.91 54.4001 247.91 64.8101 228.91 64.8101C209.83 64.8101 200.84 54.3101 200.84 39.7101Z" stroke="black" stroke-width="0.74" stroke-miterlimit="10"/>
<path d="M280.85 63.7401V17.7401H264.21V4.38013H312.72V17.7301H296.16V63.7301L280.85 63.7401Z" stroke="black" stroke-width="0.74" stroke-miterlimit="10"/>
<path d="M309.52 56.4401C309.52 54.7842 310.011 53.1656 310.931 51.7889C311.851 50.4123 313.159 49.3395 314.689 48.7062C316.219 48.073 317.903 47.9079 319.527 48.2316C321.151 48.5554 322.642 49.3536 323.812 50.5251C324.982 51.6967 325.779 53.189 326.1 54.8133C326.422 56.4376 326.255 58.1208 325.62 59.6501C324.985 61.1793 323.911 62.4858 322.533 63.4043C321.155 64.3228 319.536 64.812 317.88 64.8101C315.67 64.7815 313.559 63.8902 311.997 62.3264C310.435 60.7626 309.546 58.6502 309.52 56.4401V56.4401Z" stroke="black" stroke-width="0.74" stroke-miterlimit="10"/>
<path d="M47.17 60.7201L44.24 52.1701H20.83L17.89 60.7201H0.530029L22.88 1.3501H42.1L64.53 60.7201H47.17ZM32.49 16.4801L24.92 38.8201H40.05L32.49 16.4801Z" fill="#047A4A" stroke="black" stroke-width="0.74" stroke-miterlimit="10"/>
<path d="M68.89 60.7201V1.3501H102.54C114.28 1.3501 119.89 9.0001 119.89 16.4801C119.89 23.9601 115.35 28.8501 109.75 30.1001C116.06 31.1001 121.05 37.1001 121.05 44.6101C121.05 53.2401 115.26 60.7201 103.6 60.7201H68.89ZM104.32 19.1501C104.32 16.3001 102.18 14.2501 99.06 14.2501H84.2V24.1301H99.06C102.18 24.1301 104.32 22.0901 104.32 19.1501ZM105.47 42.4701C105.47 39.5301 103.34 37.1301 99.6 37.1301H84.2V47.8101H99.6C103.25 47.8101 105.47 45.6701 105.47 42.4701Z" fill="#047A4A" stroke="black" stroke-width="0.74" stroke-miterlimit="10"/>
<path d="M126.39 31.0801C126.39 13.0001 140 0.370117 158.17 0.370117C176.34 0.370117 189.85 13.0001 189.85 31.0801C189.85 49.1601 176.32 61.7801 158.17 61.7801C140.02 61.7801 126.39 49.1401 126.39 31.0801ZM174.28 31.0801C174.28 21.3801 167.96 13.9001 158.17 13.9001C148.38 13.9001 142 21.3801 142 31.0801C142 40.7801 148.32 48.2501 158.2 48.2501C168.08 48.2501 174.28 40.6901 174.28 31.0801Z" fill="#047A4A" stroke="black" stroke-width="0.74" stroke-miterlimit="10"/>
<path d="M197.6 36.6801V1.3501H213.17V36.1501C213.17 43.1501 217.36 48.2501 225.72 48.2501C233.91 48.2501 238.18 43.1801 238.18 36.1501V1.3501H253.67V36.5901C253.67 51.3701 244.67 61.7801 225.72 61.7801C206.59 61.7801 197.6 51.2801 197.6 36.6801Z" fill="#047A4A" stroke="black" stroke-width="0.74" stroke-miterlimit="10"/>
<path d="M277.62 60.7201V14.7201H261V1.3501H309.51V14.7001H292.93V60.7001L277.62 60.7201Z" fill="#047A4A" stroke="black" stroke-width="0.74" stroke-miterlimit="10"/>
<path d="M306.28 53.42C306.278 51.7638 306.768 50.1441 307.686 48.7662C308.605 47.3882 309.913 46.3138 311.442 45.6791C312.972 45.0443 314.656 44.8777 316.28 45.2004C317.905 45.523 319.397 46.3204 320.569 47.4916C321.74 48.6627 322.537 50.155 322.86 51.7796C323.182 53.4041 323.016 55.0879 322.381 56.6177C321.746 58.1475 320.672 59.4547 319.294 60.3736C317.916 61.2926 316.296 61.782 314.64 61.78C312.432 61.7515 310.322 60.8616 308.76 59.2999C307.198 57.7383 306.309 55.6284 306.28 53.42V53.42Z" fill="#D9202A" stroke="black" stroke-width="0.74" stroke-miterlimit="10"/>
</g>
<defs>
<clipPath id="clip0_900_3042">
<rect width="326.62" height="65.18" fill="white"/>
</clipPath>
</defs>
</svg>
