<svg width="269" height="73" viewBox="0 0 269 73" fill="none" xmlns="http://www.w3.org/2000/svg">
<path d="M50.6062 39.1088L50.5249 38.7427L48.5815 39.1746L50.5488 39.4794L50.6062 39.1088ZM9.388 10.1034V9.72839H9.013V10.1034H9.388ZM9.388 70H9.013V70.375H9.388V70ZM24.8336 33.0922H24.4586V33.4672H24.8336V33.0922ZM24.8336 23.1244V22.7494H24.4586V23.1244H24.8336ZM24.8336 56.979H24.4586V57.354H24.8336V56.979ZM24.8336 46.203V45.828H24.4586V46.203H24.8336ZM44.41 70.375C50.3751 70.375 54.8775 68.4603 57.889 65.4027C60.8978 62.3478 62.3858 58.1848 62.3858 53.7462H61.6358C61.6358 58.0182 60.2053 61.9821 57.3547 64.8764C54.5067 67.7681 50.2087 69.625 44.41 69.625V70.375ZM62.3858 53.7462C62.3858 46.044 57.2467 39.7581 50.6636 38.7382L50.5488 39.4794C56.7173 40.4351 61.6358 46.362 61.6358 53.7462H62.3858ZM50.6876 39.4749C56.5214 38.1785 61.2184 32.9936 61.2184 25.3694H60.4684C60.4684 32.652 56.0058 37.5247 50.5249 38.7427L50.6876 39.4749ZM61.2184 25.3694C61.2184 21.5052 59.7692 17.5905 56.7971 14.6415C53.8216 11.689 49.3443 9.72839 43.3324 9.72839V10.4784C49.1741 10.4784 53.4523 12.3792 56.2689 15.1739C59.0889 17.9721 60.4684 21.6904 60.4684 25.3694H61.2184ZM43.3324 9.72839H9.388V10.4784H43.3324V9.72839ZM9.013 10.1034V70H9.763V10.1034H9.013ZM9.388 70.375H44.41V69.625H9.388V70.375ZM39.8302 32.7172H24.8336V33.4672H39.8302V32.7172ZM25.2086 33.0922V23.1244H24.4586V33.0922H25.2086ZM24.8336 23.4994H39.8302V22.7494H24.8336V23.4994ZM39.8302 23.4994C41.3187 23.4994 42.5475 23.9874 43.4011 24.7896C44.2533 25.5904 44.7534 26.7243 44.7534 28.0634H45.5034C45.5034 26.5289 44.9259 25.1933 43.9147 24.243C42.905 23.2941 41.4847 22.7494 39.8302 22.7494V23.4994ZM44.7534 28.0634C44.7534 29.4505 44.251 30.6069 43.3994 31.4174C42.5464 32.2293 41.3186 32.7172 39.8302 32.7172V33.4672C41.4848 33.4672 42.9061 32.9224 43.9165 31.9607C44.9282 30.9977 45.5034 29.6397 45.5034 28.0634H44.7534ZM40.369 56.604H24.8336V57.354H40.369V56.604ZM25.2086 56.979V46.203H24.4586V56.979H25.2086ZM24.8336 46.578H40.369V45.828H24.8336V46.578ZM40.369 46.578C42.1724 46.578 43.5558 47.156 44.4861 48.0553C45.4171 48.9553 45.9208 50.202 45.9208 51.591H46.6708C46.6708 50.0166 46.0969 48.5693 45.0074 47.5161C43.9172 46.4623 42.3372 45.828 40.369 45.828V46.578ZM45.9208 51.591C45.9208 53.1169 45.3935 54.3589 44.4587 55.2217C43.5211 56.0873 42.1375 56.604 40.369 56.604V57.354C42.2823 57.354 43.8621 56.7931 44.9674 55.7728C46.0756 54.7499 46.6708 53.2979 46.6708 51.591H45.9208ZM109.936 70V70.375H110.311V70H109.936ZM109.936 56.53H110.311V56.155H109.936V56.53ZM85.8695 56.53H85.4945V56.905H85.8695V56.53ZM85.8695 10.1034H86.2445V9.72839H85.8695V10.1034ZM70.4239 10.1034V9.72839H70.0489V10.1034H70.4239ZM70.4239 70H70.0489V70.375H70.4239V70ZM110.311 70V56.53H109.561V70H110.311ZM109.936 56.155H85.8695V56.905H109.936V56.155ZM86.2445 56.53V10.1034H85.4945V56.53H86.2445ZM85.8695 9.72839H70.4239V10.4784H85.8695V9.72839ZM70.0489 10.1034V70H70.7989V10.1034H70.0489ZM70.4239 70.375H109.936V69.625H70.4239V70.375ZM144.768 71.4526C163.279 71.4526 177.112 58.5479 177.112 40.0966H176.362C176.362 58.1041 162.895 70.7026 144.768 70.7026V71.4526ZM177.112 40.0966C177.112 21.6453 163.279 8.74059 144.768 8.74059V9.49059C162.895 9.49059 176.362 22.0891 176.362 40.0966H177.112ZM144.768 8.74059C126.258 8.74059 112.334 21.644 112.334 40.0966H113.084C113.084 22.0904 126.639 9.49059 144.768 9.49059V8.74059ZM112.334 40.0966C112.334 58.5492 126.258 71.4526 144.768 71.4526V70.7026C126.639 70.7026 113.084 58.1028 113.084 40.0966H112.334ZM144.768 57.053C139.886 57.053 135.902 55.1864 133.135 52.1468C130.366 49.1036 128.799 44.8643 128.799 40.0966H128.049C128.049 45.0273 129.67 49.4537 132.581 52.6516C135.494 55.8531 139.682 57.803 144.768 57.803V57.053ZM128.799 40.0966C128.799 35.2833 130.366 31.0446 133.135 28.0132C135.901 24.9853 139.884 23.1402 144.768 23.1402V22.3902C139.684 22.3902 135.495 24.3167 132.581 27.5074C129.67 30.6947 128.049 35.1217 128.049 40.0966H128.799ZM144.768 23.1402C149.605 23.1402 153.567 24.9846 156.322 28.0127C159.08 31.0442 160.647 35.2833 160.647 40.0966H161.397C161.397 35.1217 159.776 30.6951 156.876 27.508C153.974 24.3174 149.808 22.3902 144.768 22.3902V23.1402ZM160.647 40.0966C160.647 49.6234 154.405 57.053 144.768 57.053V57.803C154.887 57.803 161.397 49.9666 161.397 40.0966H160.647ZM240.371 59.4036L240.648 59.6562L240.746 59.5488V59.4036H240.371ZM240.371 35.6066H240.746V35.2316H240.371V35.6066ZM211.456 35.6066V35.2316H211.081V35.6066H211.456ZM211.456 49.1664H211.081V49.5414H211.456V49.1664ZM224.926 49.1664H225.301V48.7914H224.926V49.1664ZM224.926 53.836L225.166 54.1241L225.301 54.0116V53.836H224.926ZM226.542 30.3982L226.216 30.5835L226.395 30.8978L226.715 30.7308L226.542 30.3982ZM239.473 23.6632L239.646 23.9958L239.988 23.818L239.801 23.4814L239.473 23.6632ZM213.88 71.4526C225.309 71.4526 234.118 66.8215 240.648 59.6562L240.094 59.151C233.693 66.1741 225.081 70.7026 213.88 70.7026V71.4526ZM240.746 59.4036V35.6066H239.996V59.4036H240.746ZM240.371 35.2316H211.456V35.9816H240.371V35.2316ZM211.081 35.6066V49.1664H211.831V35.6066H211.081ZM211.456 49.5414H224.926V48.7914H211.456V49.5414ZM224.551 49.1664V53.836H225.301V49.1664H224.551ZM224.685 53.5479C222.603 55.2832 218.2 57.053 213.88 57.053V57.803C218.361 57.803 222.938 55.9808 225.166 54.1241L224.685 53.5479ZM213.88 57.053C204.317 57.053 197.552 49.6963 197.552 40.0966H196.802C196.802 50.0733 203.867 57.803 213.88 57.803V57.053ZM197.552 40.0966C197.552 30.4969 204.317 23.1402 213.88 23.1402V22.3902C203.867 22.3902 196.802 30.1199 196.802 40.0966H197.552ZM213.88 23.1402C219.553 23.1402 224.021 26.7213 226.216 30.5835L226.868 30.2129C224.572 26.1727 219.882 22.3902 213.88 22.3902V23.1402ZM226.715 30.7308L239.646 23.9958L239.3 23.3306L226.369 30.0656L226.715 30.7308ZM239.801 23.4814C235.616 15.9291 227.418 8.74059 213.88 8.74059V9.49059C227.102 9.49059 235.069 16.4905 239.145 23.845L239.801 23.4814ZM213.88 8.74059C195.835 8.74059 181.087 20.8208 181.087 40.0966H181.837C181.837 21.2971 196.185 9.49059 213.88 9.49059V8.74059ZM181.087 40.0966C181.087 59.3723 195.835 71.4526 213.88 71.4526V70.7026C196.185 70.7026 181.837 58.896 181.837 40.0966H181.087ZM256.055 71.4526C260.842 71.4526 264.871 67.4233 264.871 62.6364H264.121C264.121 67.0091 260.428 70.7026 256.055 70.7026V71.4526ZM264.871 62.6364C264.871 57.8495 260.842 53.8202 256.055 53.8202V54.5702C260.428 54.5702 264.121 58.2637 264.121 62.6364H264.871ZM256.055 53.8202C251.268 53.8202 247.239 57.8495 247.239 62.6364H247.989C247.989 58.2637 251.683 54.5702 256.055 54.5702V53.8202ZM247.239 62.6364C247.239 67.4233 251.268 71.4526 256.055 71.4526V70.7026C251.683 70.7026 247.989 67.0091 247.989 62.6364H247.239Z" fill="black"/>
<path d="M40.41 67C52.1738 67 58.0108 59.4568 58.0108 50.7462C58.0108 43.203 52.982 37.0966 46.6062 36.1088C52.2636 34.8516 56.8434 29.8228 56.8434 22.3694C56.8434 14.8262 51.186 7.10339 39.3324 7.10339H5.388V67H40.41ZM35.8302 30.0922H20.8336V20.1244H35.8302C38.9732 20.1244 41.1284 22.1898 41.1284 25.0634C41.1284 28.0268 38.9732 30.0922 35.8302 30.0922ZM36.369 53.979H20.8336V43.203H36.369C40.1406 43.203 42.2958 45.6276 42.2958 48.591C42.2958 51.8238 40.0508 53.979 36.369 53.979ZM105.936 67V53.53H81.8695V7.10339H66.4239V67H105.936ZM140.768 68.0776C159.087 68.0776 172.737 55.326 172.737 37.0966C172.737 18.8672 159.087 6.11559 140.768 6.11559C122.449 6.11559 108.709 18.8672 108.709 37.0966C108.709 55.326 122.449 68.0776 140.768 68.0776ZM140.768 54.428C130.8 54.428 124.424 46.795 124.424 37.0966C124.424 27.3084 130.8 19.7652 140.768 19.7652C150.646 19.7652 157.022 27.3084 157.022 37.0966C157.022 46.795 150.646 54.428 140.768 54.428ZM209.88 68.0776C221.195 68.0776 229.906 63.4978 236.371 56.4036V32.6066H207.456V46.1664H220.926V50.836C218.77 52.632 214.28 54.428 209.88 54.428C200.092 54.428 193.177 46.8848 193.177 37.0966C193.177 27.3084 200.092 19.7652 209.88 19.7652C215.717 19.7652 220.297 23.447 222.542 27.3982L235.473 20.6632C231.342 13.2098 223.26 6.11559 209.88 6.11559C192.01 6.11559 177.462 18.059 177.462 37.0966C177.462 56.1342 192.01 68.0776 209.88 68.0776Z" fill="#047A4A"/>
<path d="M252.055 68.0776C256.635 68.0776 260.496 64.2162 260.496 59.6364C260.496 55.0566 256.635 51.1952 252.055 51.1952C247.475 51.1952 243.614 55.0566 243.614 59.6364C243.614 64.2162 247.475 68.0776 252.055 68.0776Z" fill="#D9202A"/>
<path d="M46.6062 36.1088L46.5249 35.7427L44.5815 36.1746L46.5488 36.4794L46.6062 36.1088ZM5.388 7.10339V6.72839H5.013V7.10339H5.388ZM5.388 67H5.013V67.375H5.388V67ZM20.8336 30.0922H20.4586V30.4672H20.8336V30.0922ZM20.8336 20.1244V19.7494H20.4586V20.1244H20.8336ZM20.8336 53.979H20.4586V54.354H20.8336V53.979ZM20.8336 43.203V42.828H20.4586V43.203H20.8336ZM40.41 67.375C46.3751 67.375 50.8775 65.4603 53.889 62.4027C56.8978 59.3478 58.3858 55.1848 58.3858 50.7462H57.6358C57.6358 55.0182 56.2053 58.9821 53.3547 61.8764C50.5067 64.7681 46.2087 66.625 40.41 66.625V67.375ZM58.3858 50.7462C58.3858 43.044 53.2467 36.7581 46.6636 35.7382L46.5488 36.4794C52.7173 37.4351 57.6358 43.362 57.6358 50.7462H58.3858ZM46.6876 36.4749C52.5214 35.1785 57.2184 29.9936 57.2184 22.3694H56.4684C56.4684 29.652 52.0058 34.5247 46.5249 35.7427L46.6876 36.4749ZM57.2184 22.3694C57.2184 18.5052 55.7692 14.5905 52.7971 11.6415C49.8216 8.68902 45.3443 6.72839 39.3324 6.72839V7.47839C45.1741 7.47839 49.4523 9.37917 52.2689 12.1739C55.0889 14.9721 56.4684 18.6904 56.4684 22.3694H57.2184ZM39.3324 6.72839H5.388V7.47839H39.3324V6.72839ZM5.013 7.10339V67H5.763V7.10339H5.013ZM5.388 67.375H40.41V66.625H5.388V67.375ZM35.8302 29.7172H20.8336V30.4672H35.8302V29.7172ZM21.2086 30.0922V20.1244H20.4586V30.0922H21.2086ZM20.8336 20.4994H35.8302V19.7494H20.8336V20.4994ZM35.8302 20.4994C37.3187 20.4994 38.5475 20.9874 39.4011 21.7896C40.2533 22.5904 40.7534 23.7243 40.7534 25.0634H41.5034C41.5034 23.5289 40.9259 22.1933 39.9147 21.243C38.905 20.2941 37.4847 19.7494 35.8302 19.7494V20.4994ZM40.7534 25.0634C40.7534 26.4505 40.251 27.6069 39.3994 28.4174C38.5464 29.2293 37.3186 29.7172 35.8302 29.7172V30.4672C37.4848 30.4672 38.9061 29.9224 39.9165 28.9607C40.9282 27.9977 41.5034 26.6397 41.5034 25.0634H40.7534ZM36.369 53.604H20.8336V54.354H36.369V53.604ZM21.2086 53.979V43.203H20.4586V53.979H21.2086ZM20.8336 43.578H36.369V42.828H20.8336V43.578ZM36.369 43.578C38.1724 43.578 39.5558 44.156 40.4861 45.0553C41.4171 45.9553 41.9208 47.202 41.9208 48.591H42.6708C42.6708 47.0166 42.0969 45.5693 41.0074 44.5161C39.9172 43.4623 38.3372 42.828 36.369 42.828V43.578ZM41.9208 48.591C41.9208 50.1169 41.3935 51.3589 40.4587 52.2217C39.5211 53.0873 38.1375 53.604 36.369 53.604V54.354C38.2823 54.354 39.8621 53.7931 40.9674 52.7728C42.0756 51.7499 42.6708 50.2979 42.6708 48.591H41.9208ZM105.936 67V67.375H106.311V67H105.936ZM105.936 53.53H106.311V53.155H105.936V53.53ZM81.8695 53.53H81.4945V53.905H81.8695V53.53ZM81.8695 7.10339H82.2445V6.72839H81.8695V7.10339ZM66.4239 7.10339V6.72839H66.0489V7.10339H66.4239ZM66.4239 67H66.0489V67.375H66.4239V67ZM106.311 67V53.53H105.561V67H106.311ZM105.936 53.155H81.8695V53.905H105.936V53.155ZM82.2445 53.53V7.10339H81.4945V53.53H82.2445ZM81.8695 6.72839H66.4239V7.47839H81.8695V6.72839ZM66.0489 7.10339V67H66.7989V7.10339H66.0489ZM66.4239 67.375H105.936V66.625H66.4239V67.375ZM140.768 68.4526C159.279 68.4526 173.112 55.5479 173.112 37.0966H172.362C172.362 55.1041 158.895 67.7026 140.768 67.7026V68.4526ZM173.112 37.0966C173.112 18.6453 159.279 5.74059 140.768 5.74059V6.49059C158.895 6.49059 172.362 19.0891 172.362 37.0966H173.112ZM140.768 5.74059C122.258 5.74059 108.334 18.644 108.334 37.0966H109.084C109.084 19.0904 122.639 6.49059 140.768 6.49059V5.74059ZM108.334 37.0966C108.334 55.5492 122.258 68.4526 140.768 68.4526V67.7026C122.639 67.7026 109.084 55.1028 109.084 37.0966H108.334ZM140.768 54.053C135.886 54.053 131.902 52.1864 129.135 49.1468C126.366 46.1036 124.799 41.8643 124.799 37.0966H124.049C124.049 42.0273 125.67 46.4537 128.581 49.6516C131.494 52.8531 135.682 54.803 140.768 54.803V54.053ZM124.799 37.0966C124.799 32.2833 126.366 28.0446 129.135 25.0132C131.901 21.9853 135.884 20.1402 140.768 20.1402V19.3902C135.684 19.3902 131.495 21.3167 128.581 24.5074C125.67 27.6947 124.049 32.1217 124.049 37.0966H124.799ZM140.768 20.1402C145.605 20.1402 149.567 21.9846 152.322 25.0127C155.08 28.0442 156.647 32.2833 156.647 37.0966H157.397C157.397 32.1217 155.776 27.6951 152.876 24.508C149.974 21.3174 145.808 19.3902 140.768 19.3902V20.1402ZM156.647 37.0966C156.647 46.6234 150.405 54.053 140.768 54.053V54.803C150.887 54.803 157.397 46.9666 157.397 37.0966H156.647ZM236.371 56.4036L236.648 56.6562L236.746 56.5488V56.4036H236.371ZM236.371 32.6066H236.746V32.2316H236.371V32.6066ZM207.456 32.6066V32.2316H207.081V32.6066H207.456ZM207.456 46.1664H207.081V46.5414H207.456V46.1664ZM220.926 46.1664H221.301V45.7914H220.926V46.1664ZM220.926 50.836L221.166 51.1241L221.301 51.0116V50.836H220.926ZM222.542 27.3982L222.216 27.5835L222.395 27.8978L222.715 27.7308L222.542 27.3982ZM235.473 20.6632L235.646 20.9958L235.988 20.818L235.801 20.4814L235.473 20.6632ZM209.88 68.4526C221.309 68.4526 230.118 63.8215 236.648 56.6562L236.094 56.151C229.693 63.1741 221.081 67.7026 209.88 67.7026V68.4526ZM236.746 56.4036V32.6066H235.996V56.4036H236.746ZM236.371 32.2316H207.456V32.9816H236.371V32.2316ZM207.081 32.6066V46.1664H207.831V32.6066H207.081ZM207.456 46.5414H220.926V45.7914H207.456V46.5414ZM220.551 46.1664V50.836H221.301V46.1664H220.551ZM220.685 50.5479C218.603 52.2832 214.2 54.053 209.88 54.053V54.803C214.361 54.803 218.938 52.9808 221.166 51.1241L220.685 50.5479ZM209.88 54.053C200.317 54.053 193.552 46.6963 193.552 37.0966H192.802C192.802 47.0733 199.867 54.803 209.88 54.803V54.053ZM193.552 37.0966C193.552 27.4969 200.317 20.1402 209.88 20.1402V19.3902C199.867 19.3902 192.802 27.1199 192.802 37.0966H193.552ZM209.88 20.1402C215.553 20.1402 220.021 23.7213 222.216 27.5835L222.868 27.2129C220.572 23.1727 215.882 19.3902 209.88 19.3902V20.1402ZM222.715 27.7308L235.646 20.9958L235.3 20.3306L222.369 27.0656L222.715 27.7308ZM235.801 20.4814C231.616 12.9291 223.418 5.74059 209.88 5.74059V6.49059C223.102 6.49059 231.069 13.4905 235.145 20.845L235.801 20.4814ZM209.88 5.74059C191.835 5.74059 177.087 17.8208 177.087 37.0966H177.837C177.837 18.2971 192.185 6.49059 209.88 6.49059V5.74059ZM177.087 37.0966C177.087 56.3723 191.835 68.4526 209.88 68.4526V67.7026C192.185 67.7026 177.837 55.896 177.837 37.0966H177.087ZM252.055 68.4526C256.842 68.4526 260.871 64.4233 260.871 59.6364H260.121C260.121 64.0091 256.428 67.7026 252.055 67.7026V68.4526ZM260.871 59.6364C260.871 54.8495 256.842 50.8202 252.055 50.8202V51.5702C256.428 51.5702 260.121 55.2637 260.121 59.6364H260.871ZM252.055 50.8202C247.268 50.8202 243.239 54.8495 243.239 59.6364H243.989C243.989 55.2637 247.683 51.5702 252.055 51.5702V50.8202ZM243.239 59.6364C243.239 64.4233 247.268 68.4526 252.055 68.4526V67.7026C247.683 67.7026 243.989 64.0091 243.989 59.6364H243.239Z" fill="black"/>
</svg>
