<svg width="502" height="66" viewBox="0 0 502 66" fill="none" xmlns="http://www.w3.org/2000/svg">
<path d="M4.63123 34.7412C4.63123 16.3819 18.613 4.02991 36.9811 4.02991C51.4008 4.02991 59.1089 12.1296 63.0497 19.9593L49.7927 26.1916C48.7104 23.6827 46.9255 21.5355 44.6503 20.0052C42.3751 18.475 39.7053 17.626 36.9585 17.5594C27.1893 17.5594 20.289 25.0591 20.289 34.7412C20.289 44.4234 27.1893 51.9156 36.9585 51.9156C39.7053 51.8489 42.3751 51 44.6503 49.4697C46.9255 47.9395 48.7104 45.7922 49.7927 43.2834L63.0497 49.5157C59.1995 57.1654 51.4008 65.4451 36.9811 65.4451C18.613 65.4451 4.63123 52.988 4.63123 34.7412Z" stroke="black" stroke-width="0.99" stroke-miterlimit="10"/>
<path d="M109.917 64.3801V40.5235H85.0945V64.3801H69.7009V5.01233H85.1096V27.174H109.933V5.01233H125.341V64.3801H109.917Z" stroke="black" stroke-width="0.99" stroke-miterlimit="10"/>
<path d="M176.671 64.3801L173.711 55.8304H150.149L147.19 64.3801H129.72L152.21 5.01233H171.567L194.14 64.3801H176.671ZM161.889 20.1317L154.256 42.4809H169.506L161.889 20.1317Z" stroke="black" stroke-width="0.99" stroke-miterlimit="10"/>
<path d="M239.219 64.3801L213.95 30.0239V64.3801H198.534V5.01233H214.388L238.547 37.6736V5.01233H254.046V64.3801H239.219Z" stroke="black" stroke-width="0.99" stroke-miterlimit="10"/>
<path d="M305.527 64.3801L280.258 30.0239V64.3801H264.842V5.01233H280.696L304.855 37.6736V5.01233H320.362V64.3801H305.527Z" stroke="black" stroke-width="0.99" stroke-miterlimit="10"/>
<path d="M331.15 64.3801V5.01233H374.937V18.3618H346.566V27.6315H374.341V40.9809H346.566V51.0231H374.968V64.3801H331.15Z" stroke="black" stroke-width="0.99" stroke-miterlimit="10"/>
<path d="M383.929 64.3801V5.01233H399.338V51.0231H423.353V64.3801H383.929Z" stroke="black" stroke-width="0.99" stroke-miterlimit="10"/>
<path d="M427.029 56.0104L435.183 44.5283C440.245 49.5557 447.11 52.3801 454.268 52.3805C459.553 52.3805 462.776 50.3331 462.776 47.4832C462.776 39.3835 428.909 45.8783 428.909 23.0042C428.909 13.037 437.425 4.13489 452.743 4.13489C462.331 4.13489 470.666 6.98478 477.03 12.3846L468.605 23.3417C463.646 19.3955 457.489 17.2332 451.135 17.2069C446.651 17.2069 444.68 18.9843 444.68 21.4742C444.68 29.0414 478.457 23.5216 478.457 45.6008C478.457 57.5253 469.586 65.445 453.543 65.445C441.457 65.445 433.031 61.7102 427.029 56.0104Z" stroke="black" stroke-width="0.99" stroke-miterlimit="10"/>
<path d="M483.84 57.0829C483.838 55.4269 484.331 53.8076 485.257 52.4301C486.182 51.0526 487.498 49.9786 489.037 49.3442C490.577 48.7098 492.272 48.5434 493.907 48.8661C495.542 49.1889 497.044 49.9861 498.223 51.1571C499.401 52.3281 500.204 53.8201 500.529 55.4444C500.854 57.0686 500.686 58.7521 500.048 60.2818C499.409 61.8114 498.328 63.1185 496.941 64.0376C495.555 64.9567 493.925 65.4465 492.258 65.445C490.034 65.4178 487.908 64.5281 486.336 62.9657C484.763 61.4034 483.867 59.2922 483.84 57.0829V57.0829Z" stroke="black" stroke-width="0.99" stroke-miterlimit="10"/>
<path d="M1.36987 31.7113C1.36987 13.382 15.3441 1 33.7197 1C48.147 1 55.8475 9.09969 59.7884 16.9369L46.5314 23.1692C45.4501 20.6589 43.6657 18.5101 41.3904 16.9785C39.1151 15.4468 36.4448 14.5968 33.6971 14.5295C23.928 14.5295 17.0277 22.0292 17.0277 31.7113C17.0277 41.3935 23.928 48.8857 33.6971 48.8857C36.4439 48.819 39.1137 47.9701 41.3889 46.4398C43.6641 44.9095 45.449 42.7623 46.5314 40.2535L59.7884 46.4858C55.9381 54.143 48.147 62.4151 33.7197 62.4151C15.3441 62.4151 1.36987 49.9581 1.36987 31.7113Z" fill="#047A4A" stroke="black" stroke-width="0.99" stroke-miterlimit="10"/>
<path d="M106.694 61.3802V37.4936H81.8331V61.3802H66.4244V1.98248H81.8331V24.1441H106.694V1.98248H122.102V61.3802H106.694Z" fill="#047A4A" stroke="black" stroke-width="0.99" stroke-miterlimit="10"/>
<path d="M173.409 61.3802L170.457 52.838H146.888L143.936 61.3802H126.459L148.971 1.98248H168.328L190.887 61.3802H173.409ZM158.627 17.1319L151.01 39.451H166.245L158.627 17.1319Z" fill="#047A4A" stroke="black" stroke-width="0.99" stroke-miterlimit="10"/>
<path d="M235.958 61.3802L210.689 26.994V61.3802H195.281V1.98248H211.135L235.331 34.6512V1.98248H250.83V61.3802H235.958Z" fill="#047A4A" stroke="black" stroke-width="0.99" stroke-miterlimit="10"/>
<path d="M302.265 61.3802L276.997 26.994V61.3802H261.588V1.98248H277.442L301.639 34.6512V1.98248H317.138V61.3802H302.265Z" fill="#047A4A" stroke="black" stroke-width="0.99" stroke-miterlimit="10"/>
<path d="M327.896 61.3802V1.98248H371.683V15.332H343.305V24.5866H371.08V37.9436H343.305V48.0007H371.683V61.3802H327.896Z" fill="#047A4A" stroke="black" stroke-width="0.99" stroke-miterlimit="10"/>
<path d="M380.667 61.3802V1.98248H396.084V48.0007H420.091V61.3802H380.667Z" fill="#047A4A" stroke="black" stroke-width="0.99" stroke-miterlimit="10"/>
<path d="M423.775 52.9805L431.929 41.4985C436.994 46.5203 443.858 49.3392 451.014 49.3357C456.299 49.3357 459.53 47.2883 459.53 44.4384C459.53 36.3387 425.655 42.8334 425.655 19.9593C425.655 9.99218 434.171 1.09003 449.489 1.09003C459.077 1.09003 467.412 3.93992 473.776 9.33971L465.351 20.2893C460.393 16.341 454.235 14.1761 447.881 14.147C443.397 14.147 441.426 15.9245 441.426 18.4219C441.426 25.9816 475.211 20.4618 475.211 42.5409C475.211 54.4655 466.34 62.3852 450.297 62.3852C438.195 62.4152 429.77 58.6803 423.775 52.9805Z" fill="#047A4A" stroke="black" stroke-width="0.99" stroke-miterlimit="10"/>
<path d="M480.578 54.053C480.577 52.3973 481.07 50.7784 481.995 49.401C482.919 48.0236 484.235 46.9497 485.774 46.315C487.314 45.6804 489.008 45.5136 490.643 45.8357C492.278 46.1578 493.78 46.9543 494.959 48.1246C496.138 49.2948 496.941 50.7861 497.267 52.4099C497.592 54.0336 497.426 55.7169 496.788 57.2467C496.151 58.7765 495.071 60.0841 493.685 61.0041C492.3 61.9241 490.67 62.4151 489.004 62.4151C486.779 62.388 484.653 61.4985 483.079 59.9363C481.505 58.3742 480.608 56.263 480.578 54.053Z" fill="#D9202A" stroke="black" stroke-width="0.99" stroke-miterlimit="10"/>
</svg>
