<svg width="650" height="145" viewBox="0 0 650 145" fill="none" xmlns="http://www.w3.org/2000/svg">
<path d="M5.45483 106.458C5.45483 83.6527 22.9808 68.3027 46.1552 68.3027C65.5727 68.3027 75.3299 79.5828 79.7642 89.7576L60.4698 98.7132C58.5782 92.9767 52.789 87.9858 46.1552 87.9858C35.4038 87.9858 28.1893 96.1695 28.1893 106.458C28.1893 116.747 35.4038 124.878 46.1552 124.878C52.8154 124.878 58.5782 119.905 60.4698 114.151L79.7642 123.001C75.4443 132.843 65.5727 144.561 46.1552 144.561C22.9808 144.605 5.45483 129.124 5.45483 106.458Z" fill="white" stroke="black" stroke-width="0.89" stroke-miterlimit="10"/>
<path d="M127.459 143.281L117.253 120.054H109.159V143.281H86.75V69.5225H126.236C143.542 69.5225 152.859 81.0218 152.859 94.8455C152.859 107.564 145.425 114.309 139.548 117.186L152.965 143.281H127.459ZM130.099 94.7315C130.099 90.758 126.579 88.9862 122.779 88.9862H109.141V100.6H122.779C126.571 100.6 130.116 98.8277 130.116 94.7315H130.099Z" fill="white" stroke="black" stroke-width="0.89" stroke-miterlimit="10"/>
<path d="M161.948 143.281V69.5225H218.071V88.9862H184.357V96.284H217.315V115.783H184.357V123.852H218.071V143.316L161.948 143.281Z" fill="white" stroke="black" stroke-width="0.89" stroke-miterlimit="10"/>
<path d="M277.406 143.281L274.767 134.65H248.108L245.469 143.281H220.069L247.343 69.5225H275.497L302.771 143.281H277.406ZM261.438 91.4159L254.118 115.195H268.758L261.438 91.4159Z" fill="white" stroke="black" stroke-width="0.89" stroke-miterlimit="10"/>
<path d="M316.004 143.281V88.9862H296.155V69.5225H358.156V88.9862H338.413V143.281H316.004Z" fill="white" stroke="black" stroke-width="0.89" stroke-miterlimit="10"/>
<path d="M366.136 143.281V69.5225H388.545V143.281H366.136Z" fill="white" stroke="black" stroke-width="0.89" stroke-miterlimit="10"/>
<path d="M419.822 143.281L392.548 69.5225H417.913L433.89 119.169L449.859 69.5225H475.277L448.003 143.281H419.822Z" fill="white" stroke="black" stroke-width="0.89" stroke-miterlimit="10"/>
<path d="M479.263 143.281V69.5225H501.672V143.281H479.263Z" fill="white" stroke="black" stroke-width="0.89" stroke-miterlimit="10"/>
<path d="M529.509 143.281V88.9862H509.652V69.5225H571.661V88.9862H551.918V143.281H529.509Z" fill="white" stroke="black" stroke-width="0.89" stroke-miterlimit="10"/>
<path d="M599.384 143.281V113.976L571.652 69.5225H596.833L610.593 94.4069L624.125 69.5225H649.305L621.793 113.976V143.281H599.384Z" fill="white" stroke="black" stroke-width="0.89" stroke-miterlimit="10"/>
<path d="M0.290283 102.836C0.290283 80.0306 17.8162 64.6807 40.9994 64.6807C60.4082 64.6807 70.1742 75.9607 74.6084 86.1355L55.3052 95.0911C53.4224 89.3458 47.6596 84.3637 40.9994 84.3637C30.2393 84.3637 23.0336 92.5474 23.0336 102.836C23.0336 113.125 30.2393 121.256 40.9994 121.256C47.6596 121.256 53.4224 116.283 55.3052 110.529L74.6084 119.423C70.2797 129.264 60.4082 140.983 40.9994 140.983C17.8162 140.983 0.290283 125.502 0.290283 102.836Z" fill="#D9202A" stroke="black" stroke-width="0.67" stroke-miterlimit="10"/>
<path d="M122.295 139.658L112.089 116.431H103.994V139.658H81.5942V65.8994H121.08C138.386 65.8994 147.704 77.3987 147.704 91.2224C147.704 103.941 140.269 110.686 134.392 113.563L147.809 139.658H122.295ZM124.934 91.1084C124.934 87.1262 121.415 85.3632 117.614 85.3632H103.994V96.9765H117.64C121.415 96.9765 124.934 95.2047 124.934 91.1084Z" fill="#D9202A" stroke="black" stroke-width="0.67" stroke-miterlimit="10"/>
<path d="M156.792 139.658V65.8994H212.916V85.3632H179.192V92.661H212.142V112.125H179.192V120.168H212.916V139.632L156.792 139.658Z" fill="#D9202A" stroke="black" stroke-width="0.67" stroke-miterlimit="10"/>
<path d="M272.251 139.658L269.611 131.027H242.97L240.331 139.658H214.904L242.178 65.8994H270.333L297.607 139.658H272.251ZM256.282 87.7928L248.988 111.572H263.628L256.282 87.7928Z" fill="#D9202A" stroke="black" stroke-width="0.67" stroke-miterlimit="10"/>
<path d="M310.848 139.658V85.3632H290.991V65.8994H353V85.3632H333.257V139.658H310.848Z" fill="#047A4A" stroke="black" stroke-width="0.67" stroke-miterlimit="10"/>
<path d="M360.98 139.658V65.8994H383.38V139.658H360.98Z" fill="#047A4A" stroke="black" stroke-width="0.67" stroke-miterlimit="10"/>
<path d="M414.658 139.658L387.383 65.8994H412.784L428.752 115.546L444.73 65.8994H470.13L442.856 139.658H414.658Z" fill="#047A4A" stroke="black" stroke-width="0.67" stroke-miterlimit="10"/>
<path d="M474.107 139.658V65.8994H496.516V139.658H474.107Z" fill="#047A4A" stroke="black" stroke-width="0.67" stroke-miterlimit="10"/>
<path d="M524.371 139.658V85.3632H504.496V65.8994H566.497V85.3632H546.753V139.658H524.371Z" fill="#047A4A" stroke="black" stroke-width="0.67" stroke-miterlimit="10"/>
<path d="M594.228 139.658V110.353L566.497 65.8994H591.677L605.428 90.7839L618.96 65.8994H644.14L616.629 110.353V139.658H594.228Z" fill="#047A4A" stroke="black" stroke-width="0.67" stroke-miterlimit="10"/>
<path d="M3.25537 33.3841V0.543945H11.7544V33.3841H3.25537Z" fill="#D9202A"/>
<path d="M25.0396 33.3841V7.89438H15.8367V0.543945H42.7151V7.89438H33.5298V33.3314L25.0396 33.3841Z" fill="#D9202A"/>
<path d="M49.7273 15.7886L46.5687 13.1572C48.4698 12.1279 49.9532 10.4722 50.7654 8.47329C50.4009 8.60171 50.0171 8.66698 49.6305 8.66626C49.1012 8.66966 48.5768 8.56456 48.0899 8.35748C47.603 8.15039 47.1641 7.84575 46.8002 7.46245C46.4364 7.07916 46.1555 6.6254 45.9749 6.12934C45.7943 5.63328 45.7179 5.1055 45.7505 4.57878C45.7575 3.37447 46.2428 2.22198 47.1003 1.37368C47.9578 0.525385 49.1175 0.0504024 50.3255 0.052743C52.965 0.052743 55.3581 2.11402 55.3581 5.76292C55.3581 9.75391 53.1849 13.2976 49.7273 15.7886Z" fill="#D9202A"/>
<path d="M57.6279 28.7527L62.1238 22.4022C63.5107 23.7819 65.1574 24.875 66.9692 25.6186C68.781 26.3622 70.7223 26.7417 72.6816 26.7352C75.5938 26.7352 77.371 25.6037 77.371 24.0336C77.371 19.5515 58.7013 23.1565 58.7013 10.4906C58.6661 4.9734 63.3467 0.052644 71.8106 0.052644C76.6807 -0.090488 81.4369 1.53685 85.1926 4.63131L80.5472 10.6836C77.8153 8.50102 74.4228 7.30459 70.922 7.28905C68.4497 7.28905 67.4027 8.27145 67.4027 9.64855C67.4027 13.8325 86.0284 10.7801 86.0284 22.9986C86.0284 29.5947 81.1366 33.9716 72.2945 33.9716C65.5815 33.9716 60.9448 31.9104 57.6279 28.7527Z" fill="#D9202A"/>
<path d="M124.934 33.3841L123.298 28.6563H110.329L108.701 33.3841H99.0234L111.464 0.543945H122.136L134.612 33.3841H124.934ZM116.778 8.91186L112.617 21.2708H121.019L116.778 8.91186Z" fill="#D9202A"/>
<path d="M136.996 33.3841V0.543945H145.495V25.981H158.693V33.3665L136.996 33.3841Z" fill="#D9202A"/>
<path d="M163.127 33.3841V0.543945H171.617V25.981H184.858V33.3665L163.127 33.3841Z" fill="#D9202A"/>
<path d="M224.265 33.3841L222.638 28.6563H209.652L208.015 33.3841H198.39L210.787 0.543945H221.45L233.899 33.3841H224.265ZM216.118 8.91186L211.921 21.2708H220.315L216.118 8.91186Z" fill="#D9202A"/>
<path d="M236.319 33.3841V0.543945H254.989C261.508 0.543945 264.614 4.78053 264.614 8.91186C264.614 13.0432 262.097 15.7535 258.992 16.4465C262.511 16.9903 265.256 20.3322 265.256 24.4723C265.256 29.2527 262.053 33.3841 255.578 33.3841H236.319ZM255.974 10.3942C255.978 10.0207 255.903 9.6505 255.755 9.30719C255.608 8.96387 255.39 8.65494 255.116 8.40003C254.842 8.14512 254.518 7.94981 254.165 7.82652C253.811 7.70323 253.435 7.65464 253.062 7.68386H244.809V13.1572H253.062C253.44 13.1855 253.819 13.1346 254.176 13.0077C254.533 12.8807 254.859 12.6806 255.133 12.4203C255.408 12.1599 255.624 11.8451 255.769 11.4961C255.914 11.1471 255.984 10.7718 255.974 10.3942ZM256.616 23.2882C256.618 22.8744 256.533 22.4648 256.366 22.0859C256.199 21.707 255.955 21.3672 255.648 21.0886C255.341 20.81 254.979 20.5987 254.585 20.4684C254.191 20.3381 253.774 20.2917 253.361 20.3322H244.809V26.2441H253.387C255.384 26.2441 256.616 25.06 256.616 23.2882Z" fill="#D9202A"/>
<path d="M268.221 16.9902C268.221 7.01712 275.779 0 285.852 0C295.926 0 303.449 7.01712 303.449 16.9902C303.449 26.9633 295.935 33.9716 285.852 33.9716C275.77 33.9716 268.221 26.9808 268.221 16.9902ZM294.791 16.9902C294.791 11.6221 291.272 7.482 285.852 7.482C280.433 7.482 276.87 11.6221 276.87 16.9902C276.87 22.3583 280.389 26.4896 285.852 26.4896C291.316 26.4896 294.791 22.3057 294.791 16.9902Z" fill="#D9202A"/>
<path d="M307.733 20.0866V0.543945H316.373V19.841C316.373 23.7268 318.696 26.5336 323.341 26.5336C327.987 26.5336 330.257 23.7268 330.257 19.841V0.543945H338.844V20.0428C338.844 28.2177 333.864 33.9717 323.341 33.9717C312.819 33.9717 307.733 28.1651 307.733 20.0866Z" fill="#D9202A"/>
<path d="M352.129 33.3841V7.89438H342.9V0.543945H369.814V7.89438H360.628V33.3314L352.129 33.3841Z" fill="#D9202A"/>
</svg>
