<svg width="17" height="22" viewBox="0 0 17 22" fill="none" xmlns="http://www.w3.org/2000/svg">
<path d="M5.85079 15.6875H8.4516M1.51611 3.5V18.5C1.51611 18.9973 1.69879 19.4742 2.02395 19.8258C2.34912 20.1775 2.79013 20.375 3.24998 20.375H13.6532C14.1131 20.375 14.5541 20.1775 14.8792 19.8258C15.2044 19.4742 15.3871 18.9973 15.3871 18.5V7.57063C15.3871 7.32084 15.3409 7.07357 15.2512 6.84335C15.1616 6.61314 15.0304 6.4046 14.8652 6.23L11.016 2.15937C10.6921 1.81687 10.2571 1.62506 9.80402 1.625H3.24998C2.79013 1.625 2.34912 1.82254 2.02395 2.17417C1.69879 2.52581 1.51611 3.00272 1.51611 3.5V3.5ZM5.85079 11.9375H11.0524H5.85079Z" stroke="black" stroke-opacity="0.72" stroke-width="2" stroke-linecap="round" stroke-linejoin="round"/>
<path d="M10.1855 1.625V5.375C10.1855 5.87228 10.3682 6.34919 10.6934 6.70083C11.0186 7.05246 11.4596 7.25 11.9194 7.25H15.3872" stroke="black" stroke-opacity="0.72" stroke-width="2" stroke-linejoin="round"/>
</svg>
