<svg width="58" height="58" viewBox="0 0 58 58" fill="none" xmlns="http://www.w3.org/2000/svg">
<rect width="58" height="58" rx="29" fill="white"/>
<path fill-rule="evenodd" clip-rule="evenodd" d="M22.4036 13.096C24.1098 13.0175 24.6538 13 29 13C33.3462 13 33.8902 13.0189 35.5949 13.096C37.2996 13.1731 38.4633 13.4451 39.4815 13.8393C40.5476 14.2422 41.5149 14.872 42.3149 15.6865C43.1295 16.4851 43.7578 17.4509 44.1593 18.5185C44.5549 19.5367 44.8255 20.7004 44.904 22.4022C44.9825 24.1113 45 24.6553 45 29C45 33.3462 44.9811 33.8902 44.904 35.5964C44.8269 37.2982 44.5549 38.4618 44.1593 39.48C43.7578 40.5478 43.1284 41.5152 42.3149 42.3149C41.5149 43.1295 40.5476 43.7578 39.4815 44.1593C38.4633 44.5549 37.2996 44.8255 35.5978 44.904C33.8902 44.9825 33.3462 45 29 45C24.6538 45 24.1098 44.9811 22.4036 44.904C20.7018 44.8269 19.5382 44.5549 18.52 44.1593C17.4522 43.7578 16.4848 43.1284 15.6851 42.3149C14.8711 41.5159 14.2412 40.5489 13.8393 39.4815C13.4451 38.4633 13.1745 37.2996 13.096 35.5978C13.0175 33.8887 13 33.3447 13 29C13 24.6538 13.0189 24.1098 13.096 22.4051C13.1731 20.7004 13.4451 19.5367 13.8393 18.5185C14.2418 17.451 14.8722 16.4841 15.6865 15.6851C16.4851 14.8713 17.4516 14.2414 18.5185 13.8393C19.5367 13.4451 20.7004 13.1745 22.4022 13.096H22.4036ZM35.4655 15.976C33.7782 15.8989 33.272 15.8829 29 15.8829C24.728 15.8829 24.2218 15.8989 22.5345 15.976C20.9738 16.0473 20.1273 16.3076 19.5629 16.5273C18.8167 16.8182 18.2829 17.1629 17.7229 17.7229C17.1921 18.2393 16.7835 18.868 16.5273 19.5629C16.3076 20.1273 16.0473 20.9738 15.976 22.5345C15.8989 24.2218 15.8829 24.728 15.8829 29C15.8829 33.272 15.8989 33.7782 15.976 35.4655C16.0473 37.0262 16.3076 37.8727 16.5273 38.4371C16.7833 39.1309 17.192 39.7607 17.7229 40.2771C18.2393 40.808 18.8691 41.2167 19.5629 41.4727C20.1273 41.6924 20.9738 41.9527 22.5345 42.024C24.2218 42.1011 24.7265 42.1171 29 42.1171C33.2735 42.1171 33.7782 42.1011 35.4655 42.024C37.0262 41.9527 37.8727 41.6924 38.4371 41.4727C39.1833 41.1818 39.7171 40.8371 40.2771 40.2771C40.808 39.7607 41.2167 39.1309 41.4727 38.4371C41.6924 37.8727 41.9527 37.0262 42.024 35.4655C42.1011 33.7782 42.1171 33.272 42.1171 29C42.1171 24.728 42.1011 24.2218 42.024 22.5345C41.9527 20.9738 41.6924 20.1273 41.4727 19.5629C41.1818 18.8167 40.8371 18.2829 40.2771 17.7229C39.7606 17.1921 39.1319 16.7836 38.4371 16.5273C37.8727 16.3076 37.0262 16.0473 35.4655 15.976ZM26.9564 33.9324C28.0977 34.4075 29.3686 34.4716 30.5519 34.1138C31.7352 33.756 32.7577 32.9984 33.4445 31.9705C34.1314 30.9426 34.4401 29.7082 34.3179 28.478C34.1957 27.2478 33.6502 26.0981 32.7745 25.2255C32.2163 24.6676 31.5414 24.2405 30.7983 23.9748C30.0552 23.7091 29.2624 23.6114 28.4771 23.6889C27.6917 23.7664 26.9333 24.017 26.2564 24.4227C25.5796 24.8285 25.0011 25.3793 24.5626 26.0354C24.1242 26.6916 23.8366 27.4368 23.7208 28.2174C23.6049 28.998 23.6635 29.7946 23.8924 30.5498C24.1214 31.3051 24.5149 32.0002 25.0447 32.5851C25.5745 33.1699 26.2274 33.6301 26.9564 33.9324ZM23.1847 23.1847C23.9484 22.4211 24.855 21.8153 25.8528 21.402C26.8506 20.9887 27.92 20.776 29 20.776C30.08 20.776 31.1494 20.9887 32.1472 21.402C33.145 21.8153 34.0516 22.4211 34.8153 23.1847C35.5789 23.9484 36.1847 24.855 36.598 25.8528C37.0113 26.8506 37.224 27.92 37.224 29C37.224 30.08 37.0113 31.1494 36.598 32.1472C36.1847 33.145 35.5789 34.0516 34.8153 34.8153C33.273 36.3576 31.1812 37.224 29 37.224C26.8188 37.224 24.727 36.3576 23.1847 34.8153C21.6424 33.273 20.776 31.1812 20.776 29C20.776 26.8188 21.6424 24.727 23.1847 23.1847ZM39.048 22.0007C39.2372 21.8222 39.3887 21.6075 39.4935 21.3694C39.5983 21.1313 39.6543 20.8746 39.6581 20.6144C39.6619 20.3543 39.6134 20.0961 39.5156 19.855C39.4178 19.6139 39.2726 19.3949 39.0887 19.211C38.9047 19.027 38.6857 18.8818 38.4446 18.784C38.2036 18.6862 37.9453 18.6378 37.6852 18.6416C37.4251 18.6454 37.1683 18.7013 36.9302 18.8061C36.6921 18.9109 36.4774 19.0624 36.2989 19.2516C35.9517 19.6197 35.7616 20.1085 35.769 20.6144C35.7764 21.1203 35.9806 21.6035 36.3384 21.9612C36.6962 22.319 37.1793 22.5232 37.6852 22.5306C38.1911 22.538 38.68 22.3479 39.048 22.0007Z" fill="#047A4A"/>
</svg>
