<svg width="776" height="159" viewBox="0 0 776 159" fill="none" xmlns="http://www.w3.org/2000/svg">
<path d="M0.375 11.5455H49.5227L83.3295 93.9318H85.0341L118.841 11.5455H167.989V157H129.352V72.9091H128.216L95.8295 155.864H72.5341L40.1477 72.3409H39.0114V157H0.375V11.5455ZM187.271 157V47.9091H226.476V157H187.271ZM206.874 36.5455C201.571 36.5455 197.025 34.7936 193.237 31.2898C189.449 27.786 187.555 23.572 187.555 18.6477C187.555 13.7235 189.449 9.50947 193.237 6.00568C197.025 2.50189 201.571 0.75 206.874 0.75C212.224 0.75 216.769 2.50189 220.51 6.00568C224.298 9.50947 226.192 13.7235 226.192 18.6477C226.192 23.572 224.298 27.786 220.51 31.2898C216.769 34.7936 212.224 36.5455 206.874 36.5455ZM346.167 83.4205H310.087C309.898 81.1951 309.117 79.2775 307.744 77.6676C306.371 76.0578 304.595 74.8267 302.417 73.9744C300.286 73.0748 297.919 72.625 295.315 72.625C291.953 72.625 289.065 73.2405 286.65 74.4716C284.235 75.7027 283.051 77.4545 283.099 79.7273C283.051 81.3371 283.738 82.8286 285.158 84.2017C286.626 85.5748 289.443 86.6402 293.61 87.3977L315.769 91.375C326.943 93.411 335.253 96.8437 340.698 101.673C346.191 106.455 348.96 112.871 349.008 120.92C348.96 128.686 346.64 135.433 342.048 141.162C337.502 146.844 331.276 151.247 323.369 154.372C315.509 157.45 306.536 158.989 296.451 158.989C279.784 158.989 266.74 155.58 257.317 148.761C247.942 141.943 242.71 132.947 241.621 121.773H280.542C281.063 125.229 282.767 127.904 285.656 129.798C288.591 131.645 292.284 132.568 296.735 132.568C300.334 132.568 303.293 131.953 305.613 130.722C307.98 129.491 309.188 127.739 309.235 125.466C309.188 123.383 308.146 121.725 306.11 120.494C304.121 119.263 300.996 118.269 296.735 117.511L277.417 114.102C266.29 112.161 257.957 108.468 252.417 103.023C246.877 97.5777 244.131 90.5701 244.178 82C244.131 74.4242 246.12 68.0085 250.144 62.7528C254.216 57.4498 260.016 53.4252 267.545 50.679C275.121 47.8854 284.093 46.4886 294.462 46.4886C310.229 46.4886 322.658 49.7557 331.749 56.2898C340.888 62.8239 345.693 71.8674 346.167 83.4205ZM463.745 83.4205H427.665C427.476 81.1951 426.695 79.2775 425.322 77.6676C423.949 76.0578 422.173 74.8267 419.995 73.9744C417.864 73.0748 415.497 72.625 412.893 72.625C409.531 72.625 406.643 73.2405 404.228 74.4716C401.813 75.7027 400.629 77.4545 400.677 79.7273C400.629 81.3371 401.316 82.8286 402.737 84.2017C404.204 85.5748 407.022 86.6402 411.188 87.3977L433.347 91.375C444.522 93.411 452.831 96.8437 458.276 101.673C463.769 106.455 466.539 112.871 466.586 120.92C466.539 128.686 464.219 135.433 459.626 141.162C455.08 146.844 448.854 151.247 440.947 154.372C433.087 157.45 424.114 158.989 414.029 158.989C397.362 158.989 384.318 155.58 374.896 148.761C365.521 141.943 360.289 132.947 359.2 121.773H398.12C398.641 125.229 400.345 127.904 403.234 129.798C406.169 131.645 409.862 132.568 414.313 132.568C417.912 132.568 420.871 131.953 423.191 130.722C425.558 129.491 426.766 127.739 426.813 125.466C426.766 123.383 425.724 121.725 423.688 120.494C421.7 119.263 418.575 118.269 414.313 117.511L394.995 114.102C383.868 112.161 375.535 108.468 369.995 103.023C364.455 97.5777 361.709 90.5701 361.756 82C361.709 74.4242 363.698 68.0085 367.722 62.7528C371.794 57.4498 377.594 53.4252 385.123 50.679C392.699 47.8854 401.671 46.4886 412.04 46.4886C427.808 46.4886 440.237 49.7557 449.327 56.2898C458.466 62.8239 463.272 71.8674 463.745 83.4205ZM481.607 157V47.9091H520.812V157H481.607ZM501.21 36.5455C495.906 36.5455 491.361 34.7936 487.573 31.2898C483.785 27.786 481.891 23.572 481.891 18.6477C481.891 13.7235 483.785 9.50947 487.573 6.00568C491.361 2.50189 495.906 0.75 501.21 0.75C506.56 0.75 511.105 2.50189 514.846 6.00568C518.634 9.50947 520.528 13.7235 520.528 18.6477C520.528 23.572 518.634 27.786 514.846 31.2898C511.105 34.7936 506.56 36.5455 501.21 36.5455ZM593.344 158.989C581.507 158.989 571.374 156.645 562.946 151.957C554.518 147.223 548.055 140.641 543.557 132.213C539.059 123.738 536.81 113.913 536.81 102.739C536.81 91.5644 539.059 81.7633 543.557 73.3352C548.055 64.8598 554.518 58.2784 562.946 53.5909C571.374 48.8561 581.507 46.4886 593.344 46.4886C605.181 46.4886 615.313 48.8561 623.741 53.5909C632.17 58.2784 638.633 64.8598 643.131 73.3352C647.629 81.7633 649.878 91.5644 649.878 102.739C649.878 113.913 647.629 123.738 643.131 132.213C638.633 140.641 632.17 147.223 623.741 151.957C615.313 156.645 605.181 158.989 593.344 158.989ZM593.628 130.011C596.942 130.011 599.807 128.899 602.222 126.673C604.636 124.448 606.507 121.276 607.832 117.156C609.158 113.037 609.821 108.136 609.821 102.455C609.821 96.7254 609.158 91.8248 607.832 87.7528C606.507 83.6335 604.636 80.4612 602.222 78.2358C599.807 76.0104 596.942 74.8977 593.628 74.8977C590.124 74.8977 587.117 76.0104 584.608 78.2358C582.098 80.4612 580.181 83.6335 578.855 87.7528C577.529 91.8248 576.866 96.7254 576.866 102.455C576.866 108.136 577.529 113.037 578.855 117.156C580.181 121.276 582.098 124.448 584.608 126.673C587.117 128.899 590.124 130.011 593.628 130.011ZM704.991 95.6364V157H665.787V47.9091H703.003V68.6477H704.139C706.507 61.7348 710.673 56.3134 716.639 52.3835C722.652 48.4536 729.66 46.4886 737.662 46.4886C745.38 46.4886 752.08 48.2642 757.761 51.8153C763.491 55.3191 767.918 60.1487 771.043 66.304C774.215 72.4593 775.777 79.4905 775.73 87.3977V157H736.526V95.6364C736.573 90.2386 735.2 86.0009 732.406 82.9233C729.66 79.8456 725.825 78.3068 720.901 78.3068C717.681 78.3068 714.864 79.017 712.449 80.4375C710.081 81.8106 708.259 83.7992 706.98 86.4034C705.702 88.9602 705.039 92.0379 704.991 95.6364Z" fill="#D9202A" fill-opacity="0.1"/>
</svg>
