<svg width="484" height="66" viewBox="0 0 484 66" fill="none" xmlns="http://www.w3.org/2000/svg">
<path d="M3.61 34.1C3.61 16 17.23 3.40002 35.38 3.40002C53.53 3.40002 67.07 16 67.07 34.1C67.07 52.2 53.54 64.81 35.38 64.81C17.22 64.81 3.61 52.17 3.61 34.1ZM51.49 34.1C51.49 24.4 45.17 16.93 35.38 16.93C25.59 16.93 19.18 24.4 19.18 34.1C19.18 43.8 25.5 51.28 35.38 51.28C45.26 51.28 51.49 43.72 51.49 34.1Z" stroke="black" stroke-width="0.74" stroke-miterlimit="10"/>
<path d="M74.81 39.71V4.38H90.39V39.18C90.39 46.18 94.57 51.28 102.94 51.28C111.13 51.28 115.4 46.21 115.4 39.18V4.38H130.89V39.62C130.89 54.4 121.89 64.81 102.94 64.81C83.8 64.81 74.81 54.31 74.81 39.71Z" stroke="black" stroke-width="0.74" stroke-miterlimit="10"/>
<path d="M174.68 63.74L164.68 43.81H156.85V63.74H141.57V4.38H171.3C184.47 4.38 192 13.1 192 24.14C192 34.46 185.68 39.98 180.16 41.94L192.26 63.74H174.68ZM176.37 24.05C176.37 20.05 172.99 17.73 168.98 17.73H156.88V30.45H169C173 30.45 176.37 28.23 176.37 24.05V24.05Z" stroke="black" stroke-width="0.74" stroke-miterlimit="10"/>
<path d="M236.45 63.74V17.74H219.81V4.38H268.32V17.73H251.76V63.73L236.45 63.74Z" stroke="black" stroke-width="0.74" stroke-miterlimit="10"/>
<path d="M275.62 63.74V4.38H319.14V17.73H290.92V27H318.52V40.33H290.92V50.39H319.14V63.74H275.62Z" stroke="black" stroke-width="0.74" stroke-miterlimit="10"/>
<path d="M368.36 63.74L365.42 55.2H342L339.06 63.74H321.72L344.06 4.38H363.29L385.72 63.74H368.36ZM353.67 19.51L346.11 41.85H361.24L353.67 19.51Z" stroke="black" stroke-width="0.74" stroke-miterlimit="10"/>
<path d="M442.15 63.74V25.11L427.15 63.74H420.38L405.39 25.11V63.74H390.08V4.38H411.35L423.72 36.6L436.18 4.38H457.46V63.74H442.15Z" stroke="black" stroke-width="0.74" stroke-miterlimit="10"/>
<path d="M466.36 56.44C466.36 54.7846 466.851 53.1663 467.771 51.7899C468.69 50.4135 469.998 49.3406 471.527 48.7071C473.056 48.0736 474.739 47.9079 476.363 48.2308C477.987 48.5538 479.478 49.351 480.648 50.5215C481.819 51.6921 482.616 53.1835 482.939 54.8071C483.262 56.4307 483.096 58.1137 482.463 59.6431C481.829 61.1725 480.757 62.4797 479.38 63.3994C478.004 64.3191 476.385 64.81 474.73 64.81C472.519 64.7815 470.407 63.8905 468.843 62.327C467.279 60.7634 466.388 58.651 466.36 56.44V56.44Z" stroke="black" stroke-width="0.74" stroke-miterlimit="10"/>
<path d="M0.369995 31.08C0.369995 13 14 0.369995 32.14 0.369995C50.28 0.369995 63.83 13 63.83 31.08C63.83 49.16 50.3 61.78 32.14 61.78C13.98 61.78 0.369995 49.14 0.369995 31.08ZM48.25 31.08C48.25 21.38 41.93 13.9 32.14 13.9C22.35 13.9 16 21.38 16 31.08C16 40.78 22.31 48.25 32.19 48.25C42.07 48.25 48.25 40.69 48.25 31.08Z" fill="#047A4A" stroke="black" stroke-width="0.74" stroke-miterlimit="10"/>
<path d="M71.58 36.68V1.34998H87.15V36.15C87.15 43.15 91.33 48.25 99.7 48.25C107.89 48.25 112.16 43.18 112.16 36.15V1.34998H127.65V36.59C127.65 51.37 118.65 61.78 99.7 61.78C80.57 61.78 71.58 51.28 71.58 36.68Z" fill="#047A4A" stroke="black" stroke-width="0.74" stroke-miterlimit="10"/>
<path d="M171.44 60.72L161.44 40.78H153.61V60.72H138.33V1.34998H168.06C181.23 1.34998 188.71 10.07 188.71 21.11C188.71 31.43 182.39 36.95 176.87 38.91L189 60.72H171.44ZM173.13 21C173.13 17 169.75 14.68 165.75 14.68H153.64V27.43H165.75C169.75 27.43 173.13 25.2 173.13 21Z" fill="#047A4A" stroke="black" stroke-width="0.74" stroke-miterlimit="10"/>
<path d="M233.21 60.72V14.72H216.57V1.34998H265.08V14.7H248.52V60.7L233.21 60.72Z" fill="#047A4A" stroke="black" stroke-width="0.74" stroke-miterlimit="10"/>
<path d="M272.38 60.72V1.34998H315.9V14.7H287.69V24H315.28V37.31H287.69V47.31H315.9V60.72H272.38Z" fill="#047A4A" stroke="black" stroke-width="0.74" stroke-miterlimit="10"/>
<path d="M365.12 60.72L362.19 52.17H338.78L335.84 60.72H318.48L340.82 1.34998H360.05L382.48 60.72H365.12ZM350.44 16.48L342.87 38.82H358L350.44 16.48Z" fill="#047A4A" stroke="black" stroke-width="0.74" stroke-miterlimit="10"/>
<path d="M438.91 60.72V22.09L423.91 60.72H417.1L402.1 22.09V60.72H386.84V1.34998H408.11L420.49 33.57L433 1.34998H454.27V60.72H438.91Z" fill="#047A4A" stroke="black" stroke-width="0.74" stroke-miterlimit="10"/>
<path d="M463.12 53.42C463.118 51.7641 463.607 50.1449 464.526 48.7671C465.444 47.3894 466.751 46.315 468.28 45.68C469.809 45.0449 471.492 44.8778 473.117 45.1996C474.741 45.5214 476.233 46.3178 477.405 47.488C478.577 48.6581 479.375 50.1495 479.698 51.7734C480.022 53.3973 479.857 55.0807 479.224 56.6107C478.591 58.1407 477.518 59.4485 476.141 60.3687C474.765 61.2888 473.146 61.78 471.49 61.78C469.281 61.7515 467.17 60.8619 465.606 59.3005C464.043 57.7391 463.151 55.6292 463.12 53.42Z" fill="#D9202A" stroke="black" stroke-width="0.74" stroke-miterlimit="10"/>
</svg>
