<svg width="469" height="66" viewBox="0 0 469 66" fill="none" xmlns="http://www.w3.org/2000/svg">
<path d="M3.64001 64.31V4.42001H33.64C47.11 4.42001 54.48 13.48 54.48 24.35C54.48 35.22 47.1 44.2 33.63 44.2H19.09V64.31H3.64001ZM38.75 24.31C38.75 20.18 35.75 17.84 31.57 17.84H19.09V30.73H31.57C35.7 30.73 38.75 28.39 38.75 24.35V24.31Z" stroke="black" stroke-width="0.75" stroke-miterlimit="10"/>
<path d="M94.78 64.31L84.78 44.2H76.82V64.31H61.38V4.42001H91.38C104.67 4.42001 112.21 13.22 112.21 24.35C112.21 34.77 105.84 40.35 100.27 42.35L112.48 64.35L94.78 64.31ZM96.49 24.31C96.49 20.31 93.08 17.93 89.04 17.93H76.82V30.73H89C93.08 30.73 96.49 28.48 96.49 24.26V24.31Z" stroke="black" stroke-width="0.75" stroke-miterlimit="10"/>
<path d="M117.68 34.41C117.68 16.18 131.42 3.41 149.74 3.41C168.06 3.41 181.74 16.16 181.74 34.41C181.74 52.66 168.09 65.41 149.74 65.41C131.39 65.41 117.68 52.64 117.68 34.41ZM165.99 34.41C165.99 24.62 159.62 17.08 149.74 17.08C139.86 17.08 133.39 24.62 133.39 34.41C133.39 44.2 139.77 51.74 149.74 51.74C159.71 51.74 166 44.11 166 34.41H165.99Z" stroke="black" stroke-width="0.75" stroke-miterlimit="10"/>
<path d="M182.6 60L189.07 48.24C191.437 50.3919 194.493 51.6324 197.69 51.74C202.54 51.74 205.69 48.6 205.69 43.57V4.42001H221.14V43.75C221.14 58.56 212.14 65.39 199.04 65.39C193 65.39 187.09 64 182.6 60Z" stroke="black" stroke-width="0.75" stroke-miterlimit="10"/>
<path d="M231.9 64.31V4.42001H275.81V17.88H247.34V27.22H275.18V40.69H247.34V50.84H275.81V64.31H231.9Z" stroke="black" stroke-width="0.75" stroke-miterlimit="10"/>
<path d="M281.73 34.41C281.73 15.91 295.73 3.41 314.15 3.41C328.61 3.41 336.33 11.58 340.28 19.48L327 25.79C325.918 23.2617 324.132 21.0971 321.857 19.5532C319.581 18.0093 316.909 17.1509 314.16 17.08C304.37 17.08 297.46 24.62 297.46 34.41C297.46 44.2 304.37 51.74 314.16 51.74C316.913 51.6665 319.586 50.8037 321.863 49.2543C324.139 47.7048 325.922 45.5339 327 43L340.29 49.28C336.43 57.01 328.62 65.36 314.16 65.36C295.74 65.39 281.73 52.82 281.73 34.41Z" stroke="black" stroke-width="0.75" stroke-miterlimit="10"/>
<path d="M360.3 64.31V17.88H343.51V4.42001H392.45V17.88H375.75V64.31H360.3Z" stroke="black" stroke-width="0.75" stroke-miterlimit="10"/>
<path d="M394.78 55.87L403 44.29C405.511 46.7991 408.493 48.7883 411.773 50.1439C415.054 51.4995 418.57 52.1948 422.12 52.19C427.42 52.19 430.65 50.12 430.65 47.25C430.65 39.08 396.71 45.63 396.71 22.55C396.71 12.55 405.24 3.55002 420.6 3.55002C430.21 3.55002 438.6 6.42002 444.93 11.9L436.49 22.9C431.52 18.9181 425.348 16.7363 418.98 16.71C414.49 16.71 412.51 18.5 412.51 21.02C412.51 28.65 446.37 23.08 446.37 45.35C446.37 57.35 437.48 65.35 421.37 65.35C409.24 65.39 400.8 61.62 394.78 55.87Z" stroke="black" stroke-width="0.75" stroke-miterlimit="10"/>
<path d="M451.71 57C451.708 55.3283 452.202 53.6936 453.129 52.3027C454.056 50.9118 455.376 49.8272 456.919 49.1861C458.463 48.545 460.163 48.3762 461.802 48.7012C463.442 49.0261 464.949 49.8301 466.131 51.0114C467.314 52.1928 468.12 53.6984 468.447 55.3378C468.774 56.9772 468.607 58.6768 467.968 60.2214C467.328 61.766 466.245 63.0863 464.856 64.0152C463.466 64.9442 461.832 65.44 460.16 65.44C457.929 65.4141 455.796 64.5169 454.217 62.9399C452.638 61.363 451.739 59.2313 451.71 57V57Z" stroke="black" stroke-width="0.75" stroke-miterlimit="10"/>
<path d="M0.369995 61.26V1.36002H30.37C43.84 1.36002 51.2 10.43 51.2 21.3C51.2 32.17 43.84 41.14 30.37 41.14H15.82V61.26H0.369995ZM35.48 21.26C35.48 17.13 32.48 14.79 28.3 14.79H15.82V27.67H28.3C32.43 27.67 35.48 25.34 35.48 21.3V21.26Z" fill="#047A4A" stroke="black" stroke-width="0.75" stroke-miterlimit="10"/>
<path d="M91.52 61.26L81.46 41.14H73.56V61.26H58.11V1.36002H88.11C101.4 1.36002 108.95 10.16 108.95 21.3C108.95 31.71 102.57 37.3 96.95 39.3L109.17 61.3L91.52 61.26ZM93.22 21.26C93.22 17.26 89.81 14.88 85.77 14.88H73.56V27.67H85.77C89.81 27.67 93.22 25.43 93.22 21.21V21.26Z" fill="#047A4A" stroke="black" stroke-width="0.75" stroke-miterlimit="10"/>
<path d="M114.41 31.35C114.41 13.12 128.15 0.350006 146.47 0.350006C164.79 0.350006 178.47 13.1 178.47 31.35C178.47 49.6 164.82 62.35 146.47 62.35C128.12 62.35 114.41 49.58 114.41 31.35ZM162.72 31.35C162.72 21.57 156.35 14.02 146.47 14.02C136.59 14.02 130.13 21.57 130.13 31.35C130.13 41.13 136.5 48.68 146.47 48.68C156.44 48.68 162.72 41.05 162.72 31.35Z" fill="#047A4A" stroke="black" stroke-width="0.75" stroke-miterlimit="10"/>
<path d="M179.33 57L185.8 45.23C188.165 47.3857 191.222 48.6268 194.42 48.73C199.27 48.73 202.42 45.59 202.42 40.56V1.36002H217.87V40.69C217.87 55.51 208.87 62.33 195.78 62.33C189.75 62.33 183.82 60.9 179.33 57Z" fill="#047A4A" stroke="black" stroke-width="0.75" stroke-miterlimit="10"/>
<path d="M228.63 61.26V1.36002H272.54V14.83H244.08V24.17H271.91V37.64H244.08V47.79H272.54V61.26H228.63Z" fill="#047A4A" stroke="black" stroke-width="0.75" stroke-miterlimit="10"/>
<path d="M278.47 31.35C278.47 12.86 292.47 0.350006 310.88 0.350006C325.34 0.350006 333.06 8.53001 337.01 16.43L323.72 22.71C322.638 20.1817 320.852 18.0171 318.577 16.4732C316.301 14.9293 313.629 14.0709 310.88 14C301.1 14 294.18 21.55 294.18 31.33C294.18 41.11 301.1 48.66 310.88 48.66C313.624 48.5934 316.291 47.7425 318.566 46.2078C320.842 44.6731 322.63 42.519 323.72 40L337 46.26C333.14 53.98 325.33 62.33 310.87 62.33C292.47 62.33 278.47 49.76 278.47 31.35Z" fill="#047A4A" stroke="black" stroke-width="0.75" stroke-miterlimit="10"/>
<path d="M357 61.26V14.83H340.2V1.36002H389.14V14.83H372.44V61.26H357Z" fill="#047A4A" stroke="black" stroke-width="0.75" stroke-miterlimit="10"/>
<path d="M391.52 52.82L399.69 41.23C404.767 46.2952 411.648 49.1368 418.82 49.13C424.11 49.13 427.35 47.07 427.35 44.19C427.35 36.02 393.35 42.58 393.35 19.5C393.35 9.44 401.88 0.5 417.24 0.5C426.85 0.5 435.24 3.38 441.57 8.85L433.13 19.85C428.161 15.8652 421.989 13.6799 415.62 13.65C411.13 13.65 409.16 15.45 409.16 17.96C409.16 25.6 443.01 20.03 443.01 42.3C443.01 54.3 434.12 62.3 418.01 62.3C406 62.33 397.53 58.56 391.52 52.82Z" fill="#047A4A" stroke="black" stroke-width="0.75" stroke-miterlimit="10"/>
<path d="M448.45 53.89C448.45 52.2207 448.945 50.589 449.872 49.201C450.8 47.8131 452.118 46.7313 453.66 46.0925C455.202 45.4537 456.899 45.2865 458.537 45.6122C460.174 45.9378 461.678 46.7417 462.858 47.922C464.038 49.1024 464.842 50.6063 465.168 52.2435C465.493 53.8807 465.326 55.5777 464.688 57.1199C464.049 58.6621 462.967 59.9802 461.579 60.9076C460.191 61.835 458.559 62.33 456.89 62.33C454.66 62.3015 452.53 61.4031 450.954 59.8265C449.377 58.2498 448.479 56.1196 448.45 53.89Z" fill="#D9202A" stroke="black" stroke-width="0.75" stroke-miterlimit="10"/>
</svg>
