<svg width="448" height="66" viewBox="0 0 448 66" fill="none" xmlns="http://www.w3.org/2000/svg">
<path d="M3.76001 55.8698L11.93 44.2898C17.0104 49.3503 23.8893 52.1911 31.06 52.1898C36.35 52.1898 39.59 50.1198 39.59 47.2498C39.59 39.0798 5.64001 45.6298 5.64001 22.5498C5.64001 12.5498 14.17 3.5498 29.53 3.5498C39.14 3.5498 47.53 6.4198 53.87 11.8998L45.42 22.8998C40.4509 18.9165 34.2786 16.7345 27.91 16.7098C23.42 16.7098 21.45 18.4998 21.45 21.0198C21.45 28.6498 55.3 23.0798 55.3 45.3498C55.3 57.3498 46.41 65.3498 30.3 65.3498C18.22 65.3898 9.77001 61.6198 3.76001 55.8698Z" stroke="black" stroke-width="0.75" stroke-miterlimit="10"/>
<path d="M62.48 64.3099V4.41992H106.39V17.8799H77.93V27.2199H105.77V40.6899H77.93V50.8399H106.39V64.3099H62.48Z" stroke="black" stroke-width="0.75" stroke-miterlimit="10"/>
<path d="M148.78 64.3099L138.72 44.1999H130.82V64.3099H115.37V4.41992H145.37C158.66 4.41992 166.2 13.2199 166.2 24.3499C166.2 34.7699 159.82 40.3499 154.26 42.3499L166.47 64.3499L148.78 64.3099ZM150.48 24.3099C150.48 20.3099 147.07 17.9299 143.03 17.9299H130.82V30.7299H143C147.07 30.7299 150.48 28.4799 150.48 24.2599V24.3099Z" stroke="black" stroke-width="0.75" stroke-miterlimit="10"/>
<path d="M190 64.3099L167.45 4.41992H185L199.73 47.6099L214.51 4.41992H232L209.39 64.3099H190Z" stroke="black" stroke-width="0.75" stroke-miterlimit="10"/>
<path d="M236.42 64.3099V4.41992H251.86V64.3099H236.42Z" stroke="black" stroke-width="0.75" stroke-miterlimit="10"/>
<path d="M259.58 34.4092C259.58 15.9092 273.58 3.40918 292 3.40918C306.46 3.40918 314.18 11.5792 318.13 19.4792L304.84 25.7692C303.754 23.2453 301.967 21.0856 299.692 19.5455C297.416 18.0055 294.747 17.1496 292 17.0792C282.21 17.0792 275.3 24.6192 275.3 34.4092C275.3 44.1992 282.21 51.7392 292 51.7392C294.752 51.6645 297.426 50.8012 299.702 49.2519C301.978 47.7026 303.761 45.5324 304.84 42.9992L318.13 49.2792C314.27 56.9992 306.46 65.3892 292 65.3892C273.59 65.3892 259.58 52.8192 259.58 34.4092Z" stroke="black" stroke-width="0.75" stroke-miterlimit="10"/>
<path d="M324.77 64.3099V4.41992H368.68V17.8799H340.22V27.2199H368.05V40.6899H340.22V50.8399H368.68V64.3099H324.77Z" stroke="black" stroke-width="0.75" stroke-miterlimit="10"/>
<path d="M373.35 55.8698L381.52 44.2898C386.601 49.3494 393.48 52.19 400.65 52.1898C405.95 52.1898 409.18 50.1198 409.18 47.2498C409.18 39.0798 375.24 45.6298 375.24 22.5498C375.24 12.5498 383.77 3.5498 399.12 3.5498C408.73 3.5498 417.12 6.4198 423.46 11.8998L415.02 22.8998C410.049 18.9193 403.878 16.7377 397.51 16.7098C393 16.7198 391 18.5098 391 20.9998C391 28.6298 424.85 23.0598 424.85 45.3298C424.85 57.3298 415.96 65.3298 399.85 65.3298C387.81 65.3898 379.37 61.6198 373.35 55.8698Z" stroke="black" stroke-width="0.75" stroke-miterlimit="10"/>
<path d="M430.28 56.9996C430.28 55.3303 430.775 53.6985 431.702 52.3106C432.63 50.9226 433.948 49.8408 435.49 49.202C437.032 48.5632 438.729 48.3961 440.367 48.7217C442.004 49.0474 443.508 49.8512 444.688 51.0316C445.868 52.2119 446.672 53.7158 446.998 55.353C447.324 56.9902 447.156 58.6872 446.518 60.2294C445.879 61.7716 444.797 63.0898 443.409 64.0172C442.021 64.9446 440.389 65.4396 438.72 65.4396C436.49 65.4111 434.36 64.5127 432.784 62.936C431.207 61.3594 430.309 59.2291 430.28 56.9996V56.9996Z" stroke="black" stroke-width="0.75" stroke-miterlimit="10"/>
<path d="M0.48999 52.81L8.65999 41.23C13.7385 46.2933 20.6186 49.1346 27.79 49.13C33.09 49.13 36.32 47.07 36.32 44.19C36.32 36 2.37999 42.58 2.37999 19.5C2.37999 9.44 10.91 0.5 26.26 0.5C35.87 0.5 44.26 3.38 50.6 8.85L42.16 19.85C37.1902 15.8666 31.0191 13.6815 24.65 13.65C20.16 13.65 18.18 15.45 18.18 17.96C18.18 25.61 52 20 52 42.31C52 54.31 43.1 62.31 27 62.31C15 62.33 6.50999 58.56 0.48999 52.81Z" fill="#047A4A" stroke="black" stroke-width="0.75" stroke-miterlimit="10"/>
<path d="M59.22 61.2594V1.35938H103.13V14.8294H74.66V24.1694H102.5V37.6394H74.66V47.7894H103.13V61.2594H59.22Z" fill="#047A4A" stroke="black" stroke-width="0.75" stroke-miterlimit="10"/>
<path d="M145.51 61.2594L135.45 41.1394H127.55V61.2594H112.1V1.35938H142.1C155.39 1.35938 162.93 10.1594 162.93 21.2994C162.93 31.7094 156.55 37.2994 150.99 39.2994L163.2 61.2994L145.51 61.2594ZM147.22 21.2594C147.22 17.2594 143.8 14.8794 139.76 14.8794H127.55V27.6694H139.76C143.8 27.6694 147.22 25.4294 147.22 21.2094V21.2594Z" fill="#047A4A" stroke="black" stroke-width="0.75" stroke-miterlimit="10"/>
<path d="M186.73 61.2594L164.19 1.35938H181.7L196.42 44.5494L211.24 1.35938H228.75L206.12 61.2594H186.73Z" fill="#047A4A" stroke="black" stroke-width="0.75" stroke-miterlimit="10"/>
<path d="M233.15 61.2594V1.35938H248.59V61.2594H233.15Z" fill="#047A4A" stroke="black" stroke-width="0.75" stroke-miterlimit="10"/>
<path d="M256.31 31.3496C256.31 12.8496 270.31 0.349609 288.73 0.349609C303.19 0.349609 310.91 8.51961 314.86 16.4296L301.57 22.7096C300.488 20.1813 298.702 18.0167 296.426 16.4728C294.15 14.9289 291.479 14.0705 288.73 13.9996C278.94 13.9996 272.03 21.5396 272.03 31.3296C272.03 41.1196 278.94 48.6596 288.73 48.6596C291.474 48.593 294.141 47.7421 296.416 46.2074C298.692 44.6727 300.48 42.5186 301.57 39.9996L314.86 46.2896C311 53.9996 303.19 62.3296 288.73 62.3296C270.32 62.3296 256.31 49.7596 256.31 31.3496Z" fill="#047A4A" stroke="black" stroke-width="0.75" stroke-miterlimit="10"/>
<path d="M321.5 61.2594V1.35938H365.42V14.8294H337V24.1694H364.84V37.6394H337V47.7894H365.47V61.2594H321.5Z" fill="#047A4A" stroke="black" stroke-width="0.75" stroke-miterlimit="10"/>
<path d="M370.08 52.81L378.25 41.23C383.329 46.2933 390.209 49.1346 397.38 49.13C402.68 49.13 405.91 47.07 405.91 44.19C405.91 36 372 42.58 372 19.5C372 9.44 380.53 0.5 395.88 0.5C405.49 0.5 413.88 3.38 420.22 8.85L411.78 19.85C406.811 15.8652 400.639 13.6799 394.27 13.65C389.78 13.65 387.8 15.45 387.8 17.96C387.8 25.6 421.66 20.03 421.66 42.3C421.66 54.3 412.77 62.3 396.66 62.3C384.54 62.33 376.1 58.56 370.08 52.81Z" fill="#047A4A" stroke="black" stroke-width="0.75" stroke-miterlimit="10"/>
<path d="M427 53.8892C427 52.2199 427.495 50.5882 428.422 49.2002C429.35 47.8123 430.668 46.7305 432.21 46.0917C433.752 45.4529 435.449 45.2857 437.087 45.6114C438.724 45.9371 440.228 46.7409 441.408 47.9212C442.588 49.1016 443.392 50.6055 443.718 52.2427C444.043 53.8799 443.876 55.5769 443.238 57.1191C442.599 58.6613 441.517 59.9794 440.129 60.9068C438.741 61.8342 437.109 62.3292 435.44 62.3292C433.21 62.3007 431.08 61.4024 429.504 59.8257C427.927 58.249 427.029 56.1188 427 53.8892Z" fill="#D9202A" stroke="black" stroke-width="0.75" stroke-miterlimit="10"/>
</svg>
