<svg width="637" height="159" viewBox="0 0 637 159" fill="none" xmlns="http://www.w3.org/2000/svg">
<path d="M45.1477 11.5455L74.9773 114.102H76.1136L105.943 11.5455H150.545L102.534 157H48.5568L0.545455 11.5455H45.1477ZM165.123 157V47.9091H204.327V157H165.123ZM184.725 36.5455C179.422 36.5455 174.877 34.7936 171.089 31.2898C167.301 27.786 165.407 23.572 165.407 18.6477C165.407 13.7235 167.301 9.50947 171.089 6.00568C174.877 2.50189 179.422 0.75 184.725 0.75C190.076 0.75 194.621 2.50189 198.362 6.00568C202.149 9.50947 204.043 13.7235 204.043 18.6477C204.043 23.572 202.149 27.786 198.362 31.2898C194.621 34.7936 190.076 36.5455 184.725 36.5455ZM324.018 83.4205H287.939C287.75 81.1951 286.968 79.2775 285.595 77.6676C284.222 76.0578 282.446 74.8267 280.268 73.9744C278.138 73.0748 275.77 72.625 273.166 72.625C269.804 72.625 266.916 73.2405 264.501 74.4716C262.087 75.7027 260.903 77.4545 260.95 79.7273C260.903 81.3371 261.589 82.8286 263.01 84.2017C264.478 85.5748 267.295 86.6402 271.462 87.3977L293.621 91.375C304.795 93.411 313.105 96.8437 318.55 101.673C324.042 106.455 326.812 112.871 326.859 120.92C326.812 128.686 324.492 135.433 319.899 141.162C315.354 146.844 309.127 151.247 301.22 154.372C293.36 157.45 284.388 158.989 274.303 158.989C257.636 158.989 244.591 155.58 235.169 148.761C225.794 141.943 220.562 132.947 219.473 121.773H258.393C258.914 125.229 260.619 127.904 263.507 129.798C266.443 131.645 270.136 132.568 274.587 132.568C278.185 132.568 281.144 131.953 283.464 130.722C285.832 129.491 287.039 127.739 287.087 125.466C287.039 123.383 285.998 121.725 283.962 120.494C281.973 119.263 278.848 118.269 274.587 117.511L255.268 114.102C244.142 112.161 235.808 108.468 230.268 103.023C224.729 97.5777 221.982 90.5701 222.03 82C221.982 74.4242 223.971 68.0085 227.996 62.7528C232.068 57.4498 237.868 53.4252 245.396 50.679C252.972 47.8854 261.945 46.4886 272.314 46.4886C288.081 46.4886 300.51 49.7557 309.601 56.2898C318.739 62.8239 323.545 71.8674 324.018 83.4205ZM341.881 157V47.9091H381.085V157H341.881ZM361.483 36.5455C356.18 36.5455 351.634 34.7936 347.847 31.2898C344.059 27.786 342.165 23.572 342.165 18.6477C342.165 13.7235 344.059 9.50947 347.847 6.00568C351.634 2.50189 356.18 0.75 361.483 0.75C366.833 0.75 371.379 2.50189 375.119 6.00568C378.907 9.50947 380.801 13.7235 380.801 18.6477C380.801 23.572 378.907 27.786 375.119 31.2898C371.379 34.7936 366.833 36.5455 361.483 36.5455ZM453.617 158.989C441.78 158.989 431.647 156.645 423.219 151.957C414.791 147.223 408.328 140.641 403.83 132.213C399.332 123.738 397.083 113.913 397.083 102.739C397.083 91.5644 399.332 81.7633 403.83 73.3352C408.328 64.8598 414.791 58.2784 423.219 53.5909C431.647 48.8561 441.78 46.4886 453.617 46.4886C465.454 46.4886 475.587 48.8561 484.015 53.5909C492.443 58.2784 498.906 64.8598 503.404 73.3352C507.902 81.7633 510.151 91.5644 510.151 102.739C510.151 113.913 507.902 123.738 503.404 132.213C498.906 140.641 492.443 147.223 484.015 151.957C475.587 156.645 465.454 158.989 453.617 158.989ZM453.901 130.011C457.216 130.011 460.08 128.899 462.495 126.673C464.91 124.448 466.78 121.276 468.106 117.156C469.432 113.037 470.094 108.136 470.094 102.455C470.094 96.7254 469.432 91.8248 468.106 87.7528C466.78 83.6335 464.91 80.4612 462.495 78.2358C460.08 76.0104 457.216 74.8977 453.901 74.8977C450.397 74.8977 447.391 76.0104 444.881 78.2358C442.372 80.4612 440.454 83.6335 439.129 87.7528C437.803 91.8248 437.14 96.7254 437.14 102.455C437.14 108.136 437.803 113.037 439.129 117.156C440.454 121.276 442.372 124.448 444.881 126.673C447.391 128.899 450.397 130.011 453.901 130.011ZM565.265 95.6364V157H526.06V47.9091H563.276V68.6477H564.413C566.78 61.7348 570.947 56.3134 576.913 52.3835C582.926 48.4536 589.933 46.4886 597.935 46.4886C605.653 46.4886 612.353 48.2642 618.035 51.8153C623.764 55.3191 628.191 60.1487 631.316 66.304C634.488 72.4593 636.051 79.4905 636.004 87.3977V157H596.799V95.6364C596.846 90.2386 595.473 86.0009 592.68 82.9233C589.933 79.8456 586.098 78.3068 581.174 78.3068C577.954 78.3068 575.137 79.017 572.722 80.4375C570.355 81.8106 568.532 83.7992 567.254 86.4034C565.975 88.9602 565.312 92.0379 565.265 95.6364Z" fill="#EBF5F1"/>
</svg>
