<svg width="58" height="58" viewBox="0 0 58 58" fill="none" xmlns="http://www.w3.org/2000/svg">
<rect width="58" height="58" rx="29" fill="white"/>
<path d="M44.4148 21.4648C44.2274 20.7961 43.8623 20.1908 43.3583 19.7131C42.84 19.2206 42.2049 18.8684 41.5127 18.6896C38.9224 18.0068 28.5444 18.0068 28.5444 18.0068C24.2179 17.9576 19.8925 18.1741 15.5926 18.6551C14.9004 18.8471 14.2665 19.2072 13.7471 19.7034C13.2367 20.1944 12.8671 20.8 12.674 21.4634C12.2101 23.9624 11.9847 26.4998 12.0009 29.0414C11.9843 31.5807 12.2091 34.1173 12.674 36.6194C12.8629 37.28 13.2312 37.8828 13.7429 38.3697C14.2547 38.8566 14.8919 39.2083 15.5926 39.3945C18.2174 40.0759 28.5444 40.0759 28.5444 40.0759C32.8764 40.1252 37.2073 39.9087 41.5127 39.4276C42.2049 39.2488 42.84 38.8966 43.3583 38.4042C43.8621 37.9266 44.2268 37.3211 44.4134 36.6525C44.8894 34.1544 45.1209 31.616 45.1045 29.0731C45.1403 26.5194 44.9091 23.969 44.4148 21.4634V21.4648ZM25.2451 33.7642V24.32L33.8796 29.0428L25.2451 33.7642Z" fill="#047A4A"/>
</svg>
