<svg width="260" height="152" viewBox="0 0 260 152" fill="none" xmlns="http://www.w3.org/2000/svg">
<path d="M65.0114 151.977C51.8011 151.93 40.3902 148.876 30.7784 142.815C21.1667 136.755 13.7566 128.019 8.5483 116.608C3.33996 105.197 0.75947 91.5133 0.806819 75.5568C0.854167 59.553 3.45833 45.964 8.61932 34.7898C13.8277 23.6155 21.214 15.1165 30.7784 9.29261C40.3902 3.46875 51.8011 0.556813 65.0114 0.556813C78.2216 0.556813 89.6326 3.49242 99.2443 9.36364C108.856 15.1875 116.266 23.6865 121.474 34.8608C126.683 46.035 129.263 59.6004 129.216 75.5568C129.216 91.608 126.612 105.339 121.403 116.75C116.195 128.161 108.785 136.897 99.1733 142.957C89.6089 148.971 78.2216 151.977 65.0114 151.977ZM65.0114 119.875C71.8295 119.875 77.4167 116.324 81.7727 109.222C86.1761 102.072 88.3542 90.8504 88.3068 75.5568C88.3068 65.5663 87.3125 57.3987 85.3239 51.054C83.3352 44.7093 80.589 40.0218 77.0852 36.9915C73.5814 33.9138 69.5568 32.375 65.0114 32.375C58.1932 32.375 52.6297 35.8314 48.321 42.7443C44.0123 49.6572 41.8106 60.5947 41.7159 75.5568C41.6686 85.7367 42.6392 94.1174 44.6278 100.699C46.6165 107.233 49.3627 112.062 52.8665 115.188C56.4176 118.312 60.4659 119.875 65.0114 119.875ZM147.753 148V119.591L202.014 74.7045C205.613 71.7216 208.69 68.928 211.247 66.3239C213.851 63.6723 215.84 60.9498 217.213 58.1562C218.634 55.3627 219.344 52.2614 219.344 48.8523C219.344 45.1117 218.539 41.9157 216.929 39.2642C215.366 36.6127 213.188 34.5767 210.395 33.1562C207.601 31.6884 204.382 30.9545 200.736 30.9545C197.09 30.9545 193.87 31.6884 191.077 33.1562C188.33 34.6241 186.2 36.7784 184.685 39.6193C183.17 42.4602 182.412 45.9167 182.412 49.9886H144.912C144.912 39.7614 147.208 30.9545 151.801 23.5682C156.394 16.1818 162.881 10.5 171.261 6.52273C179.642 2.54545 189.467 0.556813 200.736 0.556813C212.384 0.556813 222.469 2.42708 230.991 6.16761C239.562 9.8608 246.167 15.0691 250.807 21.7926C255.494 28.5161 257.838 36.3996 257.838 45.4432C257.838 51.0303 256.678 56.5937 254.358 62.1335C252.038 67.6259 247.871 73.7102 241.858 80.3864C235.845 87.0625 227.298 95.017 216.219 104.25L202.582 115.614V116.466H259.401V148H147.753Z" fill="#FCEEEE"/>
</svg>
