<svg width="708" height="66" viewBox="0 0 708 66" fill="none" xmlns="http://www.w3.org/2000/svg">
<path d="M50.41 63.74L47.47 55.2H24.07L21.13 63.74H3.77002L26.11 4.38H45.34L67.77 63.74H50.41ZM35.73 19.51L28.16 41.85H43.29L35.73 19.51Z" stroke="black" stroke-width="0.74" stroke-miterlimit="10"/>
<path d="M66.26 34.1C66.26 15.77 80.14 3.40002 98.39 3.40002C112.72 3.40002 120.39 11.5 124.29 19.33L111.12 25.56C110.045 23.0553 108.274 20.9113 106.018 19.3818C103.762 17.8523 101.115 17.0014 98.39 16.93C88.69 16.93 81.83 24.4 81.83 34.1C81.83 43.8 88.69 51.28 98.39 51.28C101.115 51.2086 103.762 50.3578 106.018 48.8283C108.274 47.2988 110.045 45.1547 111.12 42.65L124.29 48.88C120.46 56.53 112.72 64.81 98.39 64.81C80.14 64.81 66.26 52.35 66.26 34.1Z" stroke="black" stroke-width="0.74" stroke-miterlimit="10"/>
<path d="M170.84 63.74V39.89H146.18V63.74H130.88V4.38H146.18V26.54H170.84V4.38H186.15V63.74H170.84Z" stroke="black" stroke-width="0.74" stroke-miterlimit="10"/>
<path d="M196.83 63.74V4.38H212.14V63.74H196.83Z" stroke="black" stroke-width="0.74" stroke-miterlimit="10"/>
<path d="M222.82 63.74V4.38H266.34V17.73H238.13V27H265.72V40.33H238.13V50.39H266.34V63.74H222.82Z" stroke="black" stroke-width="0.74" stroke-miterlimit="10"/>
<path d="M291.27 63.74L268.93 4.38H286.28L300.88 47.19L315.56 4.38H332.92L310.49 63.74H291.27Z" stroke="black" stroke-width="0.74" stroke-miterlimit="10"/>
<path d="M337.28 63.74V4.38H380.81V17.73H352.59V27H380.18V40.33H352.59V50.39H380.81V63.74H337.28Z" stroke="black" stroke-width="0.74" stroke-miterlimit="10"/>
<path d="M441.78 63.74V25.11L426.78 63.74H420L405 25.11V63.74H389.71V4.38H411L423.35 36.6L435.81 4.38H457.09V63.74H441.78Z" stroke="black" stroke-width="0.74" stroke-miterlimit="10"/>
<path d="M467.77 63.74V4.38H511.29V17.73H483.08V27H510.67V40.33H483.08V50.39H511.29V63.74H467.77Z" stroke="black" stroke-width="0.74" stroke-miterlimit="10"/>
<path d="M560.6 63.74L535.5 29.39V63.74H520.19V4.38H536L560 37V4.38H575.4V63.74H560.6Z" stroke="black" stroke-width="0.74" stroke-miterlimit="10"/>
<path d="M599.32 63.74V17.74H582.68V4.38H631.19V17.73H614.63V63.73L599.32 63.74Z" stroke="black" stroke-width="0.74" stroke-miterlimit="10"/>
<path d="M633.5 55.38L641.6 43.89C644.095 46.3832 647.058 48.3592 650.318 49.7046C653.579 51.05 657.073 51.7383 660.6 51.73C665.85 51.73 669.05 49.73 669.05 46.83C669.05 38.73 635.41 45.23 635.41 22.36C635.41 12.36 643.87 3.48999 659.09 3.48999C668.61 3.48999 676.89 6.32999 683.21 11.76L674.84 22.76C669.911 18.8147 663.793 16.6509 657.48 16.62C653.03 16.62 651.07 18.4 651.07 20.89C651.07 28.46 684.63 22.94 684.63 45.01C684.63 56.94 675.82 64.86 659.89 64.86C647.83 64.81 639.46 61.07 633.5 55.38Z" stroke="black" stroke-width="0.74" stroke-miterlimit="10"/>
<path d="M689.93 56.44C689.93 54.7846 690.421 53.1663 691.341 51.7899C692.26 50.4135 693.567 49.3406 695.097 48.7071C696.626 48.0736 698.309 47.9079 699.933 48.2308C701.556 48.5538 703.048 49.351 704.218 50.5215C705.389 51.6921 706.186 53.1835 706.509 54.8071C706.832 56.4307 706.666 58.1137 706.033 59.6431C705.399 61.1725 704.327 62.4797 702.95 63.3994C701.574 64.3191 699.955 64.81 698.3 64.81C696.089 64.7815 693.977 63.8905 692.413 62.327C690.849 60.7634 689.958 58.651 689.93 56.44V56.44Z" stroke="black" stroke-width="0.74" stroke-miterlimit="10"/>
<path d="M47.17 60.72L44.24 52.17H20.83L17.89 60.72H0.530029L22.88 1.34998H42.1L64.53 60.72H47.17ZM32.49 16.48L24.92 38.82H40.05L32.49 16.48Z" fill="#047A4A" stroke="black" stroke-width="0.74" stroke-miterlimit="10"/>
<path d="M63 31.08C63 12.74 76.9 0.369995 95.15 0.369995C109.48 0.369995 117.15 8.46999 121.05 16.3L107.88 22.53C106.804 20.026 105.033 17.8827 102.777 16.3533C100.521 14.824 97.8745 13.9726 95.15 13.9C85.45 13.9 78.59 21.38 78.59 31.08C78.59 40.78 85.45 48.25 95.15 48.25C97.8751 48.1798 100.523 47.3294 102.779 45.7998C105.036 44.2701 106.806 42.1254 107.88 39.62L121.05 45.85C117.22 53.51 109.48 61.78 95.15 61.78C76.9 61.78 63 49.32 63 31.08Z" fill="#047A4A" stroke="black" stroke-width="0.74" stroke-miterlimit="10"/>
<path d="M167.6 60.72V36.86H143V60.72H127.64V1.34998H143V23.51H167.6V1.34998H182.91V60.72H167.6Z" fill="#047A4A" stroke="black" stroke-width="0.74" stroke-miterlimit="10"/>
<path d="M193.59 60.72V1.34998H208.9V60.72H193.59Z" fill="#047A4A" stroke="black" stroke-width="0.74" stroke-miterlimit="10"/>
<path d="M219.58 60.72V1.34998H263.1V14.7H234.89V24H262.48V37.31H234.89V47.31H263.1V60.72H219.58Z" fill="#047A4A" stroke="black" stroke-width="0.74" stroke-miterlimit="10"/>
<path d="M288 60.72L265.69 1.34998H283L297.6 44.16L312.33 1.34998H329.68L307.25 60.72H288Z" fill="#047A4A" stroke="black" stroke-width="0.74" stroke-miterlimit="10"/>
<path d="M334.05 60.72V1.34998H377.57V14.7H349.35V24H377V37.31H349.4V47.31H377.62V60.72H334.05Z" fill="#047A4A" stroke="black" stroke-width="0.74" stroke-miterlimit="10"/>
<path d="M438.54 60.72V22.09L423.54 60.72H416.77L401.77 22.09V60.72H386.47V1.34998H407.74L420.11 33.57L432.57 1.34998H453.85V60.72H438.54Z" fill="#047A4A" stroke="black" stroke-width="0.74" stroke-miterlimit="10"/>
<path d="M464.53 60.72V1.34998H508.05V14.7H479.84V24H507.43V37.31H479.84V47.31H508.05V60.72H464.53Z" fill="#047A4A" stroke="black" stroke-width="0.74" stroke-miterlimit="10"/>
<path d="M557.36 60.72L532.26 26.36V60.72H517V1.34998H532.75L556.75 34.01V1.34998H572.15V60.72H557.36Z" fill="#047A4A" stroke="black" stroke-width="0.74" stroke-miterlimit="10"/>
<path d="M596.08 60.72V14.72H579.44V1.34998H628V14.7H611.39V60.7L596.08 60.72Z" fill="#047A4A" stroke="black" stroke-width="0.74" stroke-miterlimit="10"/>
<path d="M630.26 52.35L638.36 40.87C640.857 43.3597 643.82 45.3327 647.08 46.6762C650.341 48.0198 653.834 48.7075 657.36 48.7C662.61 48.7 665.82 46.65 665.82 43.8C665.82 35.7 632.17 42.2 632.17 19.33C632.17 9.33002 640.63 0.460022 655.85 0.460022C665.37 0.460022 673.65 3.31002 679.97 8.74002L671.6 19.68C666.673 15.7368 660.56 13.5732 654.25 13.54C649.79 13.54 647.84 15.32 647.84 17.82C647.84 25.38 681.39 19.82 681.39 41.94C681.39 53.86 672.58 61.78 656.65 61.78C644.59 61.78 636.23 58.05 630.26 52.35Z" fill="#047A4A" stroke="black" stroke-width="0.74" stroke-miterlimit="10"/>
<path d="M686.69 53.42C686.688 51.7641 687.177 50.1449 688.096 48.7671C689.014 47.3894 690.321 46.315 691.85 45.68C693.379 45.0449 695.062 44.8778 696.687 45.1996C698.311 45.5214 699.803 46.3178 700.975 47.488C702.146 48.6581 702.945 50.1495 703.268 51.7734C703.592 53.3973 703.427 55.0807 702.794 56.6107C702.161 58.1407 701.088 59.4485 699.711 60.3687C698.334 61.2888 696.716 61.78 695.06 61.78C692.851 61.7515 690.74 60.8619 689.176 59.3005C687.613 57.7391 686.721 55.6292 686.69 53.42Z" fill="#D9202A" stroke="black" stroke-width="0.74" stroke-miterlimit="10"/>
</svg>
