<svg width="377" height="72" viewBox="0 0 377 72" fill="none" xmlns="http://www.w3.org/2000/svg">
<path fill-rule="evenodd" clip-rule="evenodd" d="M5.6001 40.5665C5.6001 21.8376 19.8005 9.21045 38.3929 9.21045C53.0304 9.21045 60.8642 17.5001 64.8601 25.4919L65.0315 25.8348L51.0388 32.4529L50.888 32.0894C48.9645 27.4556 43.9736 23.6101 38.3929 23.6101C28.8299 23.6101 22.0651 30.9668 22.0651 40.5665C22.0651 50.1661 28.8299 57.5229 38.3929 57.5229C43.9736 57.5229 48.9645 53.6773 50.888 49.0435L51.0388 48.68L65.0315 55.2981L64.8601 55.641C60.9547 63.4519 53.0316 71.9225 38.3929 71.9225C19.7997 71.9225 5.6001 59.2048 5.6001 40.5665ZM38.3929 9.96045C20.1673 9.96045 6.3501 22.2977 6.3501 40.5665C6.3501 58.7461 20.1681 71.1725 38.3929 71.1725C52.4569 71.1725 60.1408 63.1839 64.0159 55.6474L51.4243 49.6919C49.293 54.4142 44.1604 58.2729 38.3929 58.2729C28.3795 58.2729 21.3151 50.5432 21.3151 40.5665C21.3151 30.5897 28.3795 22.8601 38.3929 22.8601C44.1604 22.8601 49.293 26.7187 51.4243 31.441L64.016 25.4854C60.0594 17.7812 52.4627 9.96045 38.3929 9.96045ZM86.4072 10.1982H106.323L129.236 70.8449H110.914L107.951 62.2241H84.8689L81.9055 70.8449H63.5851L86.4072 10.1982ZM86.9263 10.9482L64.6687 70.0949H81.3703L84.3337 61.4741H108.486L111.45 70.0949H128.151L105.804 10.9482H86.9263ZM132.742 10.1982H163.11C169.841 10.1982 175.151 12.4288 178.778 16.1019C182.403 19.773 184.319 24.856 184.319 30.5089C184.319 40.8552 178.127 46.5249 172.541 48.6691L184.85 70.8449H166.291L156.233 50.7297H148.938V70.8449H132.742V10.1982ZM133.492 10.9482V70.0949H148.188V49.9797H156.697L166.755 70.0949H183.576L171.458 48.2636L171.875 48.1154C177.321 46.1831 183.569 40.7393 183.569 30.5089C183.569 25.0265 181.713 20.1417 178.244 16.6288C174.777 13.1179 169.67 10.9482 163.11 10.9482H133.492ZM192.112 10.1982H236.774V24.4182H208.308V33.0075H236.146V47.2275H208.308V56.6249H236.774V70.8449H192.112V10.1982ZM192.862 10.9482V70.0949H236.024V57.3749H207.558V46.4775H235.396V33.7575H207.558V23.6682H236.024V10.9482H192.862ZM244.992 10.1982H289.654V24.4182H261.188V33.0075H289.026V47.2275H261.188V56.6249H289.654V70.8449H244.992V10.1982ZM245.742 10.9482V70.0949H288.904V57.3749H260.438V46.4775H288.276V33.7575H260.438V23.6682H288.904V10.9482H245.742ZM297.872 10.1982H328.241C334.972 10.1982 340.281 12.4288 343.908 16.1019C347.533 19.773 349.449 24.856 349.449 30.5089C349.449 40.8553 343.257 46.5249 337.671 48.6691L349.981 70.8449H331.421L321.364 50.7297H314.068V70.8449H297.872V10.1982ZM298.622 10.9482V70.0949H313.318V49.9797H321.827L331.885 70.0949H348.707L336.588 48.2636L337.005 48.1154C342.451 46.1831 348.699 40.7393 348.699 30.5089C348.699 25.0265 346.843 20.1417 343.375 16.6288C339.907 13.1179 334.8 10.9482 328.241 10.9482H298.622ZM148.188 23.6682H160.776C162.865 23.6682 164.815 24.2714 166.252 25.4232C167.697 26.5813 168.604 28.2818 168.604 30.4191C168.604 32.6415 167.7 34.3662 166.252 35.5272C164.813 36.6807 162.861 37.2597 160.776 37.2597H148.188V23.6682ZM148.938 24.4182V36.5097H160.776C162.731 36.5097 164.506 35.9661 165.783 34.942C167.051 33.9253 167.854 32.4172 167.854 30.4191C167.854 28.5153 167.055 27.0279 165.783 26.0084C164.503 24.9825 162.728 24.4182 160.776 24.4182H148.938ZM313.318 23.6682H325.906C327.995 23.6682 329.946 24.2714 331.382 25.4232C332.827 26.5813 333.734 28.2818 333.734 30.4191C333.734 32.6415 332.831 34.3662 331.382 35.5272C329.944 36.6807 327.991 37.2597 325.906 37.2597H313.318V23.6682ZM314.068 24.4182V36.5097H325.906C327.861 36.5097 329.636 35.9661 330.913 34.942C332.182 33.9253 332.984 32.4172 332.984 30.4191C332.984 28.5153 332.185 27.0279 330.913 26.0084C329.634 24.9825 327.858 24.4182 325.906 24.4182H314.068ZM96.3651 24.6701L104.521 48.7541H88.2092L96.3651 24.6701ZM89.255 48.0041H103.475L96.3651 27.0084L89.255 48.0041ZM355.446 63.1063C355.446 58.3194 359.475 54.2901 364.262 54.2901C369.049 54.2901 373.079 58.3194 373.079 63.1063C373.079 67.8932 369.049 71.9225 364.262 71.9225C359.475 71.9225 355.446 67.8932 355.446 63.1063ZM364.262 55.0401C359.89 55.0401 356.196 58.7336 356.196 63.1063C356.196 67.479 359.89 71.1725 364.262 71.1725C368.635 71.1725 372.329 67.479 372.329 63.1063C372.329 58.7336 368.635 55.0401 364.262 55.0401Z" fill="black"/>
<path d="M35.1229 68.4974C49.5807 68.4974 57.3933 60.146 61.2547 52.4232L47.9643 46.1372C45.9887 50.8966 40.8701 54.8478 35.1229 54.8478C25.3347 54.8478 18.4201 47.3046 18.4201 37.5164C18.4201 27.7282 25.3347 20.185 35.1229 20.185C40.8701 20.185 45.9887 24.1362 47.9643 28.8956L61.2547 22.6096C57.3035 14.7072 49.5807 6.5354 35.1229 6.5354C16.7139 6.5354 2.70508 19.0176 2.70508 37.5164C2.70508 55.9254 16.7139 68.4974 35.1229 68.4974Z" fill="#047A4A"/>
<path d="M125.423 67.4198L102.793 7.5232H83.3967L60.8569 67.4198H78.3679L81.3313 58.799H104.949L107.912 67.4198H125.423ZM100.728 45.329H85.4621L93.0951 22.7892L100.728 45.329Z" fill="#047A4A"/>
<path d="M180.943 67.4198L168.731 45.4188C174.298 43.4432 180.674 37.8756 180.674 27.4588C180.674 16.3236 173.131 7.5232 159.84 7.5232H129.847V67.4198H145.293V47.3046H153.195L163.253 67.4198H180.943ZM157.506 33.8346H145.293V20.9932H157.506C161.547 20.9932 164.959 23.328 164.959 27.369C164.959 31.5896 161.547 33.8346 157.506 33.8346Z" fill="#047A4A"/>
<path d="M233.129 67.4198V53.9498H204.662V43.8024H232.5V30.3324H204.662V20.9932H233.129V7.5232H189.217V67.4198H233.129Z" fill="#047A4A"/>
<path d="M286.009 67.4198V53.9498H257.543V43.8024H285.381V30.3324H257.543V20.9932H286.009V7.5232H242.097V67.4198H286.009Z" fill="#047A4A"/>
<path d="M346.074 67.4198L333.861 45.4188C339.428 43.4432 345.804 37.8756 345.804 27.4588C345.804 16.3236 338.261 7.5232 324.971 7.5232H294.977V67.4198H310.423V47.3046H318.325L328.383 67.4198H346.074ZM322.636 33.8346H310.423V20.9932H322.636C326.677 20.9932 330.089 23.328 330.089 27.369C330.089 31.5896 326.677 33.8346 322.636 33.8346Z" fill="#047A4A"/>
<path d="M360.992 68.4974C365.572 68.4974 369.434 64.636 369.434 60.0562C369.434 55.4764 365.572 51.615 360.992 51.615C356.413 51.615 352.551 55.4764 352.551 60.0562C352.551 64.636 356.413 68.4974 360.992 68.4974Z" fill="#D9202A"/>
<path fill-rule="evenodd" clip-rule="evenodd" d="M2.33008 37.5164C2.33008 18.7876 16.5305 6.1604 35.1229 6.1604C49.7604 6.1604 57.5942 14.4501 61.5901 22.4419L61.7615 22.7847L47.7688 29.4029L47.6179 29.0394C45.6945 24.4056 40.7035 20.56 35.1229 20.56C25.5599 20.56 18.7951 27.9167 18.7951 37.5164C18.7951 47.1161 25.5599 54.4728 35.1229 54.4728C40.7035 54.4728 45.6945 50.6272 47.6179 45.9934L47.7688 45.6299L61.7615 52.2481L61.5901 52.5909C57.6847 60.4018 49.7616 68.8724 35.1229 68.8724C16.5297 68.8724 2.33008 56.1547 2.33008 37.5164ZM35.1229 6.9104C16.8973 6.9104 3.08008 19.2476 3.08008 37.5164C3.08008 55.6961 16.8981 68.1224 35.1229 68.1224C49.1869 68.1224 56.8708 60.1339 60.7459 52.5974L48.1543 46.6419C46.0229 51.3642 40.8904 55.2228 35.1229 55.2228C25.1095 55.2228 18.0451 47.4931 18.0451 37.5164C18.0451 27.5397 25.1095 19.81 35.1229 19.81C40.8904 19.81 46.0229 23.6686 48.1543 28.3909L60.746 22.4354C56.7893 14.7311 49.1927 6.9104 35.1229 6.9104ZM83.1371 7.1482H103.053L125.966 67.7948H107.644L104.681 59.174H81.5989L78.6355 67.7948H60.3151L83.1371 7.1482ZM83.6562 7.8982L61.3987 67.0448H78.1003L81.0637 58.424H105.216L108.18 67.0448H124.881L102.534 7.8982H83.6562ZM129.472 7.1482H159.84C166.571 7.1482 171.881 9.37878 175.508 13.0518C179.133 16.723 181.049 21.806 181.049 27.4588C181.049 37.8052 174.857 43.4748 169.271 45.6191L181.58 67.7948H163.021L152.963 47.6796H145.668V67.7948H129.472V7.1482ZM130.222 7.8982V67.0448H144.918V46.9296H153.427L163.485 67.0448H180.306L168.188 45.2135L168.605 45.0654C174.051 43.133 180.299 37.6892 180.299 27.4588C180.299 21.9764 178.443 17.0916 174.974 13.5788C171.507 10.0678 166.4 7.8982 159.84 7.8982H130.222ZM188.842 7.1482H233.504V21.3682H205.037V29.9574H232.875V44.1774H205.037V53.5748H233.504V67.7948H188.842V7.1482ZM189.592 7.8982V67.0448H232.754V54.3248H204.287V43.4274H232.125V30.7074H204.287V20.6182H232.754V7.8982H189.592ZM241.722 7.1482H286.384V21.3682H257.918V29.9574H285.756V44.1774H257.918V53.5748H286.384V67.7948H241.722V7.1482ZM242.472 7.8982V67.0448H285.634V54.3248H257.168V43.4274H285.006V30.7074H257.168V20.6182H285.634V7.8982H242.472ZM294.602 7.1482H324.971C331.702 7.1482 337.011 9.37878 340.638 13.0518C344.263 16.723 346.179 21.806 346.179 27.4588C346.179 37.8052 339.987 43.4749 334.401 45.6191L346.711 67.7948H328.151L318.094 47.6796H310.798V67.7948H294.602V7.1482ZM295.352 7.8982V67.0448H310.048V46.9296H318.557L328.615 67.0448H345.437L333.318 45.2135L333.735 45.0654C339.181 43.133 345.429 37.6892 345.429 27.4588C345.429 21.9764 343.573 17.0916 340.104 13.5788C336.637 10.0678 331.53 7.8982 324.971 7.8982H295.352ZM144.918 20.6182H157.506C159.595 20.6182 161.545 21.2213 162.982 22.3731C164.427 23.5313 165.334 25.2318 165.334 27.369C165.334 29.5915 164.43 31.3161 162.982 32.4771C161.543 33.6307 159.591 34.2096 157.506 34.2096H144.918V20.6182ZM145.668 21.3682V33.4596H157.506C159.461 33.4596 161.236 32.9161 162.513 31.8919C163.781 30.8753 164.584 29.3671 164.584 27.369C164.584 25.4653 163.785 23.9778 162.513 22.9583C161.233 21.9325 159.458 21.3682 157.506 21.3682H145.668ZM310.048 20.6182H322.636C324.725 20.6182 326.676 21.2213 328.112 22.3731C329.557 23.5313 330.464 25.2318 330.464 27.369C330.464 29.5915 329.561 31.3161 328.112 32.4771C326.673 33.6307 324.721 34.2096 322.636 34.2096H310.048V20.6182ZM310.798 21.3682V33.4596H322.636C324.591 33.4596 326.366 32.9161 327.643 31.8919C328.912 30.8753 329.714 29.3671 329.714 27.369C329.714 25.4653 328.915 23.9778 327.643 22.9583C326.364 21.9325 324.588 21.3682 322.636 21.3682H310.798ZM93.0951 21.6201L101.251 45.704H84.9392L93.0951 21.6201ZM85.985 44.954H100.205L93.0951 23.9583L85.985 44.954ZM352.176 60.0562C352.176 55.2693 356.205 51.24 360.992 51.24C365.779 51.24 369.809 55.2693 369.809 60.0562C369.809 64.8431 365.779 68.8724 360.992 68.8724C356.205 68.8724 352.176 64.8431 352.176 60.0562ZM360.992 51.99C356.62 51.99 352.926 55.6835 352.926 60.0562C352.926 64.4289 356.62 68.1224 360.992 68.1224C365.365 68.1224 369.059 64.4289 369.059 60.0562C369.059 55.6835 365.365 51.99 360.992 51.99Z" fill="black"/>
</svg>
