<svg width="474" height="66" viewBox="0 0 474 66" fill="none" xmlns="http://www.w3.org/2000/svg">
<path d="M3.61011 63.65V4.29004H33.3401C46.6901 4.29004 53.9901 13.29 53.9901 24.05C53.9901 34.81 46.6901 43.72 33.3401 43.72H18.9201V63.65H3.61011ZM38.4101 24.05C38.4101 19.95 35.4101 17.64 31.2901 17.64H18.9201V30.37H31.2901C35.3801 30.37 38.4101 28.05 38.4101 24.05V24.05Z" stroke="black" stroke-width="0.74" stroke-miterlimit="10"/>
<path d="M94.7501 63.65L91.8101 55.11H68.4101L65.4701 63.65H48.1101L70.4501 4.29004H89.6801L112.11 63.65H94.7501ZM80.0701 19.42L72.5001 41.76H87.6301L80.0701 19.42Z" stroke="black" stroke-width="0.74" stroke-miterlimit="10"/>
<path d="M149.58 63.65L139.58 43.72H131.75V63.65H116.47V4.29004H146.2C159.37 4.29004 166.85 13.01 166.85 24.05C166.85 34.37 160.53 39.89 155.01 41.85L167.11 63.65H149.58ZM151.27 24C151.27 20 147.89 17.68 143.88 17.68H131.78V30.37H143.88C147.89 30.37 151.27 28.14 151.27 24Z" stroke="black" stroke-width="0.74" stroke-miterlimit="10"/>
<path d="M187.68 63.65V17.65H171V4.29004H219.51V17.64H203V63.64L187.68 63.65Z" stroke="black" stroke-width="0.74" stroke-miterlimit="10"/>
<path d="M267.25 63.65L242.15 29.3V63.65H226.84V4.29004H242.59L266.59 36.95V4.29004H282V63.65H267.25Z" stroke="black" stroke-width="0.74" stroke-miterlimit="10"/>
<path d="M292.71 63.65V4.29004H336.23V17.64H308V26.89H335.59V40.24H308V50.3H336.21V63.65H292.71Z" stroke="black" stroke-width="0.74" stroke-miterlimit="10"/>
<path d="M378.24 63.65L368.24 43.72H360.41V63.65H345.13V4.29004H374.86C388.03 4.29004 395.51 13.01 395.51 24.05C395.51 34.37 389.19 39.89 383.67 41.85L395.77 63.65H378.24ZM379.93 24C379.93 20 376.55 17.68 372.54 17.68H360.44V30.37H372.54C376.55 30.37 379.93 28.14 379.93 24Z" stroke="black" stroke-width="0.74" stroke-miterlimit="10"/>
<path d="M399.69 55.2901L407.79 43.8001C410.285 46.2934 413.248 48.2694 416.508 49.6148C419.769 50.9602 423.263 51.6485 426.79 51.6401C432.04 51.6401 435.25 49.6401 435.25 46.7401C435.25 38.6401 401.6 45.1401 401.6 22.2701C401.6 12.2701 410.06 3.40015 425.28 3.40015C434.8 3.40015 443.08 6.24015 449.4 11.6701L441.03 22.6701C436.104 18.727 429.99 16.5634 423.68 16.5301C419.22 16.5301 417.27 18.3101 417.27 20.8001C417.27 28.3701 450.82 22.8501 450.82 44.9201C450.82 56.8501 442.01 64.7701 426.08 64.7701C414 64.7201 405.66 61.0001 399.69 55.2901Z" stroke="black" stroke-width="0.74" stroke-miterlimit="10"/>
<path d="M456.12 56.3502C456.12 54.6948 456.611 53.0765 457.531 51.7001C458.45 50.3237 459.758 49.2509 461.287 48.6174C462.816 47.9838 464.499 47.8181 466.123 48.1411C467.747 48.464 469.238 49.2612 470.409 50.4317C471.579 51.6023 472.376 53.0937 472.699 54.7173C473.022 56.3409 472.856 58.0239 472.223 59.5533C471.589 61.0827 470.517 62.3899 469.14 63.3096C467.764 64.2293 466.146 64.7202 464.49 64.7202C462.279 64.6917 460.167 63.8007 458.603 62.2372C457.04 60.6737 456.149 58.5612 456.12 56.3502V56.3502Z" stroke="black" stroke-width="0.74" stroke-miterlimit="10"/>
<path d="M0.370117 60.63V1.26001H30.1001C43.4501 1.26001 50.7501 10.26 50.7501 21.02C50.7501 31.78 43.4501 40.69 30.1001 40.69H15.6801V60.63H0.370117ZM35.1701 21C35.1701 16.9 32.1701 14.59 28.0501 14.59H15.6801V27.34H28.0501C32.1501 27.34 35.1701 25 35.1701 21Z" fill="#047A4A" stroke="black" stroke-width="0.74" stroke-miterlimit="10"/>
<path d="M91.5101 60.63L88.5801 52.08H65.1701L62.2301 60.63H44.8701L67.2201 1.26001H86.4401L108.87 60.63H91.5101ZM76.8301 16.39L69.2601 38.73H84.3901L76.8301 16.39Z" fill="#047A4A" stroke="black" stroke-width="0.74" stroke-miterlimit="10"/>
<path d="M146.34 60.63L136.34 40.69H128.51V60.63H113.23V1.26001H143C156.17 1.26001 163.65 9.98001 163.65 21.02C163.65 31.34 157.33 36.86 151.81 38.82L163.92 60.63H146.34ZM148 20.93C148 16.93 144.62 14.61 140.62 14.61H128.54V27.34H140.65C144.65 27.34 148 25.11 148 20.93Z" fill="#047A4A" stroke="black" stroke-width="0.74" stroke-miterlimit="10"/>
<path d="M184.44 60.63V14.63H167.79V1.26001H216.3V14.61H199.75V60.61L184.44 60.63Z" fill="#047A4A" stroke="black" stroke-width="0.74" stroke-miterlimit="10"/>
<path d="M264 60.63L238.9 26.27V60.63H223.6V1.26001H239.36L263.36 33.92V1.26001H278.75V60.63H264Z" fill="#047A4A" stroke="black" stroke-width="0.74" stroke-miterlimit="10"/>
<path d="M289.47 60.63V1.26001H333V14.61H304.78V23.87H332.37V37.22H304.78V47.27H333V60.63H289.47Z" fill="#047A4A" stroke="black" stroke-width="0.74" stroke-miterlimit="10"/>
<path d="M375 60.63L365 40.69H357.2V60.63H341.89V1.26001H371.62C384.79 1.26001 392.27 9.98001 392.27 21.02C392.27 31.34 385.95 36.86 380.43 38.82L392.54 60.63H375ZM376.69 20.93C376.69 16.93 373.31 14.61 369.31 14.61H357.2V27.34H369.31C373.31 27.34 376.69 25.11 376.69 20.93Z" fill="#047A4A" stroke="black" stroke-width="0.74" stroke-miterlimit="10"/>
<path d="M396.45 52.2601L404.55 40.7801C407.048 43.2689 410.011 45.2413 413.271 46.5848C416.531 47.9283 420.024 48.6165 423.55 48.6101C428.8 48.6101 432.01 46.6101 432.01 43.7101C432.01 35.6201 398.36 42.1101 398.36 19.2401C398.36 9.24012 406.82 0.370117 422.04 0.370117C431.56 0.370117 439.84 3.22012 446.16 8.65012L437.79 19.5901C432.864 15.6469 426.75 13.4833 420.44 13.4501C415.99 13.4501 414.03 15.2301 414.03 17.7301C414.03 25.2901 447.58 19.7301 447.58 41.8501C447.58 53.7701 438.77 61.6901 422.84 61.6901C410.78 61.6901 402.42 58.0001 396.45 52.2601Z" fill="#047A4A" stroke="black" stroke-width="0.74" stroke-miterlimit="10"/>
<path d="M452.89 53.3302C452.888 51.6739 453.378 50.0543 454.297 48.6763C455.215 47.2983 456.523 46.224 458.052 45.5892C459.582 44.9545 461.266 44.7879 462.891 45.1105C464.515 45.4332 466.007 46.2305 467.179 47.4017C468.35 48.5729 469.147 50.0652 469.47 51.6897C469.792 53.3143 469.626 54.9981 468.991 56.5279C468.356 58.0577 467.282 59.3648 465.904 60.2838C464.526 61.2027 462.906 61.6922 461.25 61.6902C459.042 61.6617 456.932 60.7718 455.37 59.2101C453.809 57.6484 452.919 55.5385 452.89 53.3302Z" fill="#D9202A" stroke="black" stroke-width="0.74" stroke-miterlimit="10"/>
</svg>
